<?xml version="1.0" encoding="UTF-8"?>
<svg version="1.1" xmlns="http://www.w3.org/2000/svg" width="221" height="211">
<path d="M0 0 C3 0.125 3 0.125 4 1.125 C4.08748207 3.05167507 4.10697334 4.98151861 4.09765625 6.91015625 C4.09282227 8.66489258 4.09282227 8.66489258 4.08789062 10.45507812 C4.07532227 12.30262695 4.07532227 12.30262695 4.0625 14.1875 C4.05798828 15.42306641 4.05347656 16.65863281 4.04882812 17.93164062 C4.03699608 20.99614117 4.02051173 24.06054721 4 27.125 C4.82322754 27.13974365 5.64645508 27.1544873 6.49462891 27.16967773 C24.44578277 27.65963373 40.14507523 35.85438999 53 48.125 C53 48.785 53 49.445 53 50.125 C53.56976563 50.33511719 54.13953125 50.54523437 54.7265625 50.76171875 C63.90916909 56.26812717 70.14446156 71.89770055 73.03125 81.5859375 C74.42766266 87.23623689 75.13169157 92.28667386 75 98.125 C75.78238037 98.11976318 76.56476074 98.11452637 77.37084961 98.10913086 C80.89305833 98.08842894 84.4152543 98.07536162 87.9375 98.0625 C89.78504883 98.04993164 89.78504883 98.04993164 91.66992188 98.03710938 C92.83974609 98.03388672 94.00957031 98.03066406 95.21484375 98.02734375 C96.84087524 98.01948853 96.84087524 98.01948853 98.49975586 98.01147461 C101 98.125 101 98.125 102 99.125 C102.125 102.125 102.125 102.125 102 105.125 C101 106.125 101 106.125 98.49975586 106.23852539 C97.41573486 106.23328857 96.33171387 106.22805176 95.21484375 106.22265625 C93.46010742 106.21782227 93.46010742 106.21782227 91.66992188 106.21289062 C90.43822266 106.20451172 89.20652344 106.19613281 87.9375 106.1875 C86.08415039 106.18073242 86.08415039 106.18073242 84.19335938 106.17382812 C81.12885883 106.16199608 78.06445279 106.14551173 75 106.125 C75.04640625 107.64287109 75.04640625 107.64287109 75.09375 109.19140625 C74.73748558 124.13966755 67.08280856 139.51336995 58 151.125 C57.34 151.125 56.68 151.125 56 151.125 C55.731875 151.723125 55.46375 152.32125 55.1875 152.9375 C54.00082594 155.12347854 52.90400887 156.53832594 51 158.125 C50.34 158.125 49.68 158.125 49 158.125 C49 158.785 49 159.445 49 160.125 C35.9851026 170.4239034 20.81307805 177.34755579 4 177.125 C4.00523682 177.90738037 4.01047363 178.68976074 4.01586914 179.49584961 C4.03657106 183.01805833 4.04963838 186.5402543 4.0625 190.0625 C4.07087891 191.29419922 4.07925781 192.52589844 4.08789062 193.79492188 C4.09111328 194.96474609 4.09433594 196.13457031 4.09765625 197.33984375 C4.10289307 198.42386475 4.10812988 199.50788574 4.11352539 200.62475586 C4 203.125 4 203.125 3 204.125 C0 204.25 0 204.25 -3 204.125 C-4 203.125 -4 203.125 -4.11352539 200.62475586 C-4.10567017 198.99872437 -4.10567017 198.99872437 -4.09765625 197.33984375 C-4.09282227 195.58510742 -4.09282227 195.58510742 -4.08789062 193.79492188 C-4.07532227 191.94737305 -4.07532227 191.94737305 -4.0625 190.0625 C-4.05798828 188.82693359 -4.05347656 187.59136719 -4.04882812 186.31835938 C-4.03699608 183.25385883 -4.02051173 180.18945279 -4 177.125 C-4.99644531 177.15851563 -5.99289063 177.19203125 -7.01953125 177.2265625 C-25.76381136 176.74829824 -43.46604373 166.56215005 -56.1640625 153.2421875 C-67.52894065 140.13630673 -75.50314425 123.69634524 -75 106.125 C-75.78238037 106.13023682 -76.56476074 106.13547363 -77.37084961 106.14086914 C-80.89305833 106.16157106 -84.4152543 106.17463838 -87.9375 106.1875 C-89.16919922 106.19587891 -90.40089844 106.20425781 -91.66992188 106.21289062 C-92.83974609 106.21611328 -94.00957031 106.21933594 -95.21484375 106.22265625 C-96.84087524 106.23051147 -96.84087524 106.23051147 -98.49975586 106.23852539 C-101 106.125 -101 106.125 -102 105.125 C-102.125 102.125 -102.125 102.125 -102 99.125 C-101 98.125 -101 98.125 -98.49975586 98.01147461 C-97.41573486 98.01671143 -96.33171387 98.02194824 -95.21484375 98.02734375 C-93.46010742 98.03217773 -93.46010742 98.03217773 -91.66992188 98.03710938 C-89.82237305 98.04967773 -89.82237305 98.04967773 -87.9375 98.0625 C-86.08415039 98.06926758 -86.08415039 98.06926758 -84.19335938 98.07617188 C-81.12885883 98.08800392 -78.06445279 98.10448827 -75 98.125 C-75.03222656 96.95195313 -75.06445312 95.77890625 -75.09765625 94.5703125 C-75.0729534 78.51345967 -66.47119691 62.7348125 -56 51.125 C-55.40832031 50.44050781 -54.81664062 49.75601563 -54.20703125 49.05078125 C-43.27179984 37.1829075 -27.01800385 29.06569848 -11 27.125 C-8.66681951 27.09829346 -6.33312894 27.09411622 -4 27.125 C-4.00523682 26.34261963 -4.01047363 25.56023926 -4.01586914 24.75415039 C-4.03657106 21.23194167 -4.04963838 17.7097457 -4.0625 14.1875 C-4.07087891 12.95580078 -4.07925781 11.72410156 -4.08789062 10.45507812 C-4.09111328 9.28525391 -4.09433594 8.11542969 -4.09765625 6.91015625 C-4.10289307 5.82613525 -4.10812988 4.74211426 -4.11352539 3.62524414 C-3.94754699 -0.03020706 -3.71360345 0.15473348 0 0 Z M4 36.125 C4 50.645 4 65.165 4 80.125 C7.3 81.775 10.6 83.425 14 85.125 C18.31856352 89.35167919 19.51183373 92.31927871 22 98.125 C36.52 98.125 51.04 98.125 66 98.125 C64.49181461 86.19272198 64.49181461 86.19272198 60.5625 75.5625 C60.26279297 74.90443359 59.96308594 74.24636719 59.65429688 73.56835938 C57.98462929 69.95738631 56.25954129 66.40416717 54 63.125 C53.34 63.125 52.68 63.125 52 63.125 C51.95875 62.568125 51.9175 62.01125 51.875 61.4375 C50.77965435 58.54265792 48.99948925 57.26729357 46.59375 55.40625 C45 54.125 45 54.125 42.75 51.6875 C31.87803489 41.55680524 18.39702225 38.18171746 4 36.125 Z M-47 55.125 C-58.28606682 66.84584307 -66 81.64652955 -66 98.125 C-51.48 98.125 -36.96 98.125 -22 98.125 C-20.68 95.155 -19.36 92.185 -18 89.125 C-13.82060787 83.75149584 -10.88089041 83.18317352 -4 80.125 C-4 65.605 -4 51.085 -4 36.125 C-20.4379186 36.125 -35.36148821 43.91821044 -47 55.125 Z M-14.2265625 90.16796875 C-16.45293857 92.62482868 -17.36785413 94.88525244 -18 98.125 C-16.68 98.455 -15.36 98.785 -14 99.125 C-14 101.105 -14 103.085 -14 105.125 C-14.99 105.455 -15.98 105.785 -17 106.125 C-17 109.46888731 -16.53407812 111.52370381 -14.29296875 114.046875 C-9.72802782 118.17936819 -9.72802782 118.17936819 -4 120.125 C-4 118.475 -4 116.825 -4 115.125 C-1.69 115.455 0.62 115.785 3 116.125 C3.33 117.115 3.66 118.105 4 119.125 C8.92289989 118.69062648 11.48750825 116.481381 15 113.125 C16.75670469 110.41009275 17 109.41065953 17 106.125 C15.68 106.125 14.36 106.125 13 106.125 C13.33 103.815 13.66 101.505 14 99.125 C14.99 98.795 15.98 98.465 17 98.125 C16.72201968 93.53832477 14.66081494 90.88001982 11.69921875 87.57421875 C9.28446398 85.51473825 7.11894986 85.19926071 4 85.125 C3.67 86.115 3.34 87.105 3 88.125 C1.02 88.125 -0.96 88.125 -3 88.125 C-3.33 87.135 -3.66 86.145 -4 85.125 C-9.17718592 85.125 -10.54212107 86.80540232 -14.2265625 90.16796875 Z M-66 106.125 C-65.28305777 113.29442227 -64.55964076 118.64590933 -62 125.125 C-61.71125 125.86621094 -61.4225 126.60742188 -61.125 127.37109375 C-54.54648576 143.1869384 -42.91104577 155.67709293 -27.4375 162.875 C-26.83156006 163.16914795 -26.22562012 163.4632959 -25.60131836 163.76635742 C-18.31839058 166.9678787 -12.53040211 166.98761305 -4 168.125 C-4 153.605 -4 139.085 -4 124.125 C-8.455 122.145 -8.455 122.145 -13 120.125 C-18.57033328 115.58620992 -19.3003884 113.32396426 -22 106.125 C-36.52 106.125 -51.04 106.125 -66 106.125 Z M22 106.125 C20.35 109.425 18.7 112.725 17 116.125 C12.47538254 120.08404028 9.58892904 121.88942838 4 124.125 C4 138.645 4 153.165 4 168.125 C15.73773831 166.6806368 15.73773831 166.6806368 26.3125 162.9375 C26.98128174 162.63215332 27.65006348 162.32680664 28.33911133 162.01220703 C36.02216553 158.37154105 42.23027617 153.35022834 48 147.125 C48.54269531 146.55265625 49.08539063 145.9803125 49.64453125 145.390625 C60.30759056 133.77509199 64.26697402 121.72223378 66 106.125 C51.48 106.125 36.96 106.125 22 106.125 Z " fill="#E72728" transform="translate(112,3.875)"/>
<path d="M0 0 C3 0.125 3 0.125 4 1.125 C4.08748207 3.05167507 4.10697334 4.98151861 4.09765625 6.91015625 C4.09282227 8.66489258 4.09282227 8.66489258 4.08789062 10.45507812 C4.07532227 12.30262695 4.07532227 12.30262695 4.0625 14.1875 C4.05798828 15.42306641 4.05347656 16.65863281 4.04882812 17.93164062 C4.03699608 20.99614117 4.02051173 24.06054721 4 27.125 C5.09441406 27.1146875 6.18882813 27.104375 7.31640625 27.09375 C10.41520887 27.12003889 13.00729941 27.39949683 16 28.125 C16 28.455 16 28.785 16 29.125 C14.02090602 29.15186553 12.04171029 29.17133375 10.0625 29.1875 C8.96035156 29.19910156 7.85820313 29.21070312 6.72265625 29.22265625 C4 29.125 4 29.125 3 28.125 C2.84235595 26.34630274 2.74899323 24.56181524 2.68359375 22.77734375 C2.64169922 21.69775391 2.59980469 20.61816406 2.55664062 19.50585938 C2.51732422 18.36955078 2.47800781 17.23324219 2.4375 16.0625 C2.39431641 14.92232422 2.35113281 13.78214844 2.30664062 12.60742188 C2.20017161 9.78007805 2.09815793 6.95264262 2 4.125 C0.68 3.795 -0.64 3.465 -2 3.125 C-2.03758423 4.26714966 -2.03758423 4.26714966 -2.07592773 5.43237305 C-2.19219048 8.89257376 -2.31477978 12.35252254 -2.4375 15.8125 C-2.47681641 17.01068359 -2.51613281 18.20886719 -2.55664062 19.44335938 C-2.59853516 20.60029297 -2.64042969 21.75722656 -2.68359375 22.94921875 C-2.72025146 24.01229248 -2.75690918 25.07536621 -2.79467773 26.1706543 C-2.9848525 28.90704532 -3.3931507 31.45356732 -4 34.125 C-3.34 34.125 -2.68 34.125 -2 34.125 C-2.00222061 34.68796783 -2.00444122 35.25093567 -2.00672913 35.83096313 C-2.02889554 41.70354578 -2.04395397 47.57611648 -2.05493164 53.44873047 C-2.0599526 55.63883955 -2.06677066 57.82894529 -2.07543945 60.01904297 C-2.08760304 63.17155788 -2.09325077 66.32402836 -2.09765625 69.4765625 C-2.10281754 70.45178864 -2.10797882 71.42701477 -2.11329651 72.43179321 C-2.11368069 77.11380819 -1.97426071 81.52001684 -1 86.125 C0.98 86.62 0.98 86.62 3 87.125 C3 70.625 3 54.125 3 37.125 C3.33 37.125 3.66 37.125 4 37.125 C4.33 51.315 4.66 65.505 5 80.125 C7.31 81.115 9.62 82.105 12 83.125 C17.52295141 86.50013697 19.88288347 90.17306815 21.58984375 96.3671875 C21.72519531 96.94726562 21.86054688 97.52734375 22 98.125 C18.535 98.62 18.535 98.62 15 99.125 C15 101.105 15 103.085 15 105.125 C16.32 105.125 17.64 105.125 19 105.125 C19 105.785 19 106.445 19 107.125 C19.66 107.125 20.32 107.125 21 107.125 C20.71083835 113.0528139 18.13452754 116.18022131 14 120.125 C10.82372238 122.39376973 8.84559442 123.1636014 5 124.125 C4.67 138.645 4.34 153.165 4 168.125 C3.67 168.125 3.34 168.125 3 168.125 C3 152.285 3 136.445 3 120.125 C2.34 119.795 1.68 119.465 1 119.125 C1 118.465 1 117.805 1 117.125 C-0.32 117.125 -1.64 117.125 -3 117.125 C-3.33 117.785 -3.66 118.445 -4 119.125 C-4 117.805 -4 116.485 -4 115.125 C-1.69 115.125 0.62 115.125 3 115.125 C3.33 116.445 3.66 117.765 4 119.125 C8.53075374 117.57159872 12.61756522 115.68608435 14.98046875 111.30859375 C15.71343146 109.60522971 16.36359372 107.86674351 17 106.125 C15.68 106.125 14.36 106.125 13 106.125 C13 103.815 13 101.505 13 99.125 C14.32 98.795 15.64 98.465 17 98.125 C14.97337272 92.38288938 13.02587099 89.61233905 8 86.125 C5.78264561 85.27220662 5.78264561 85.27220662 4 85.125 C3.505 87.105 3.505 87.105 3 89.125 C1.02 89.125 -0.96 89.125 -3 89.125 C-3.33 87.805 -3.66 86.485 -4 85.125 C-11.46184609 87.9949408 -14.43718088 90.83741543 -18 98.125 C-20.49745713 99.37372856 -22.15934075 99.23872733 -24.95288086 99.22265625 C-25.98412582 99.21935303 -27.01537079 99.2160498 -28.0778656 99.21264648 C-29.19556839 99.20434814 -30.31327118 99.1960498 -31.46484375 99.1875 C-32.60909317 99.18371338 -33.75334259 99.17992676 -34.93226624 99.17602539 C-39.84380373 99.15961949 -44.75525926 99.13150136 -49.66674805 99.10449219 C-53.24527607 99.08646314 -56.82379075 99.07433248 -60.40234375 99.0625 C-61.51802231 99.05420166 -62.63370087 99.04590332 -63.78318787 99.03735352 C-64.81758499 99.03405029 -65.85198212 99.03074707 -66.91772461 99.02734375 C-67.82880478 99.02210693 -68.73988495 99.01687012 -69.67857361 99.01147461 C-72.1589288 99.0282474 -72.1589288 99.0282474 -75 100.125 C-76.91906917 100.20766486 -78.84089474 100.23240663 -80.76171875 100.22265625 C-81.87998047 100.21943359 -82.99824219 100.21621094 -84.15039062 100.21289062 C-85.31763672 100.20451172 -86.48488281 100.19613281 -87.6875 100.1875 C-88.86634766 100.18298828 -90.04519531 100.17847656 -91.25976562 100.17382812 C-94.17322789 100.16203273 -97.08658863 100.1455727 -100 100.125 C-99.67 101.115 -99.34 102.105 -99 103.125 C-96.53879159 104.35560421 -94.74223134 104.3307723 -91.9921875 104.44140625 C-91.00605469 104.48330078 -90.01992187 104.52519531 -89.00390625 104.56835938 C-87.97136719 104.60767578 -86.93882813 104.64699219 -85.875 104.6875 C-84.31458984 104.75227539 -84.31458984 104.75227539 -82.72265625 104.81835938 C-80.14857472 104.9246288 -77.57439492 105.02666583 -75 105.125 C-75 105.455 -75 105.785 -75 106.125 C-79.31248609 106.15386537 -83.62494762 106.17175255 -87.9375 106.1875 C-89.16919922 106.19587891 -90.40089844 106.20425781 -91.66992188 106.21289062 C-92.83974609 106.21611328 -94.00957031 106.21933594 -95.21484375 106.22265625 C-96.84087524 106.23051147 -96.84087524 106.23051147 -98.49975586 106.23852539 C-101 106.125 -101 106.125 -102 105.125 C-102.125 102.125 -102.125 102.125 -102 99.125 C-101 98.125 -101 98.125 -98.49975586 98.01147461 C-97.41573486 98.01671143 -96.33171387 98.02194824 -95.21484375 98.02734375 C-93.46010742 98.03217773 -93.46010742 98.03217773 -91.66992188 98.03710938 C-89.82237305 98.04967773 -89.82237305 98.04967773 -87.9375 98.0625 C-86.08415039 98.06926758 -86.08415039 98.06926758 -84.19335938 98.07617188 C-81.12885883 98.08800392 -78.06445279 98.10448827 -75 98.125 C-75.03222656 96.95195313 -75.06445312 95.77890625 -75.09765625 94.5703125 C-75.0729534 78.51345967 -66.47119691 62.7348125 -56 51.125 C-55.40832031 50.44050781 -54.81664062 49.75601563 -54.20703125 49.05078125 C-43.27179984 37.1829075 -27.01800385 29.06569848 -11 27.125 C-8.66681951 27.09829346 -6.33312894 27.09411622 -4 27.125 C-4.00523682 26.34261963 -4.01047363 25.56023926 -4.01586914 24.75415039 C-4.03657106 21.23194167 -4.04963838 17.7097457 -4.0625 14.1875 C-4.07087891 12.95580078 -4.07925781 11.72410156 -4.08789062 10.45507812 C-4.09111328 9.28525391 -4.09433594 8.11542969 -4.09765625 6.91015625 C-4.10289307 5.82613525 -4.10812988 4.74211426 -4.11352539 3.62524414 C-3.94754699 -0.03020706 -3.71360345 0.15473348 0 0 Z M-47 55.125 C-58.28606682 66.84584307 -66 81.64652955 -66 98.125 C-51.48 98.125 -36.96 98.125 -22 98.125 C-20.68 95.155 -19.36 92.185 -18 89.125 C-13.82060787 83.75149584 -10.88089041 83.18317352 -4 80.125 C-4 65.605 -4 51.085 -4 36.125 C-20.4379186 36.125 -35.36148821 43.91821044 -47 55.125 Z " fill="#E23330" transform="translate(112,3.875)"/>
<path d="M0 0 C3.69230769 0.69230769 3.69230769 0.69230769 5 2 C5.15764405 3.77869726 5.25100677 5.56318476 5.31640625 7.34765625 C5.37924805 8.96704102 5.37924805 8.96704102 5.44335938 10.61914062 C5.48267578 11.75544922 5.52199219 12.89175781 5.5625 14.0625 C5.60568359 15.20267578 5.64886719 16.34285156 5.69335938 17.51757812 C5.79982839 20.34492195 5.90184207 23.17235738 6 26 C6.82322754 25.93796387 7.64645508 25.87592773 8.49462891 25.81201172 C25.46561528 24.73355017 39.50875287 32.96880214 52.25 43.375 C53.61125 44.674375 53.61125 44.674375 55 46 C55 46.66 55 47.32 55 48 C55.56976563 48.21011719 56.13953125 48.42023437 56.7265625 48.63671875 C65.90916909 54.14312717 72.14446156 69.77270055 75.03125 79.4609375 C76.41069073 85.04256341 77.40106491 90.25140295 77 96 C74.3573028 93.70424908 73.37466878 91.77156016 72.375 88.4375 C71.37113631 85.14589919 71.37113631 85.14589919 70 82 C68.40210649 86.95346987 69.71693186 91.13282415 71 96 C68.6479994 97.1760003 67.26265599 97.12084541 64.64208984 97.11352539 C63.29091568 97.11341209 63.29091568 97.11341209 61.91244507 97.11329651 C60.93844757 97.10813522 59.96445007 97.10297394 58.9609375 97.09765625 C57.96494537 97.0962413 56.96895325 97.09482635 55.94277954 97.09336853 C52.75348947 97.08775936 49.56426894 97.0752053 46.375 97.0625 C44.21614685 97.05748618 42.05729259 97.05292307 39.8984375 97.04882812 C34.5989345 97.03778695 29.29947222 97.02103988 24 97 C24 96.67 24 96.34 24 96 C38.52 96 53.04 96 68 96 C66.70040663 89.50203317 65.47518492 83.86874576 63.125 77.8125 C62.88136719 77.15314453 62.63773437 76.49378906 62.38671875 75.81445312 C61.09371844 72.41446526 59.64761127 69.27618404 57.8046875 66.13671875 C56 63 56 63 56 61 C55.34 61 54.68 61 54 61 C53.8453125 60.0409375 53.8453125 60.0409375 53.6875 59.0625 C53.460625 58.381875 53.23375 57.70125 53 57 C52.01 56.67 51.02 56.34 50 56 C47.8125 54.0625 47.8125 54.0625 46 52 C46 51.34 46 50.68 46 50 C45.4328125 49.72800781 44.865625 49.45601562 44.28125 49.17578125 C41.92875899 47.9632816 39.73715965 46.60063918 37.5 45.1875 C29.50002602 40.40388983 21.90875988 37.06851488 12.609375 35.859375 C10.74490723 35.6113916 10.74490723 35.6113916 8.84277344 35.35839844 C7.43560059 35.18099121 7.43560059 35.18099121 6 35 C6.00222061 35.56740906 6.00444122 36.13481812 6.00672913 36.71942139 C6.02884984 42.6241391 6.04393501 48.52884505 6.05493164 54.43359375 C6.05996088 56.63737466 6.06678505 58.84115222 6.07543945 61.04492188 C6.0875666 64.21224796 6.09324241 67.37952994 6.09765625 70.546875 C6.10281754 71.53242371 6.10797882 72.51797241 6.11329651 73.53338623 C6.11337204 74.4540387 6.11344757 75.37469116 6.11352539 76.32324219 C6.115746 77.1315448 6.11796661 77.93984741 6.12025452 78.77264404 C6.001452 80.97310595 5.60974898 82.88748207 5 85 C3.35 84.67 1.7 84.34 0 84 C-1.09985852 78.67163874 -1.1449842 73.5261439 -1.1328125 68.11328125 C-1.13424759 66.70504341 -1.13424759 66.70504341 -1.13571167 65.26835632 C-1.13638981 63.29242892 -1.13456113 61.31649925 -1.13037109 59.34057617 C-1.12499962 56.31228672 -1.13033773 53.28414436 -1.13671875 50.25585938 C-1.13605826 48.33333301 -1.13477769 46.41080673 -1.1328125 44.48828125 C-1.13483673 43.58201492 -1.13686096 42.6757486 -1.13894653 41.74201965 C-1.13579437 40.90072006 -1.13264221 40.05942047 -1.12939453 39.19262695 C-1.12859894 38.45349564 -1.12780334 37.71436432 -1.12698364 36.95283508 C-1 35 -1 35 0 32 C-0.66 32 -1.32 32 -2 32 C-1.88202982 27.60324012 -1.75780274 23.20671601 -1.62768555 18.81030273 C-1.58428187 17.31360731 -1.54261087 15.81686061 -1.50268555 14.32006836 C-1.44511384 12.17285688 -1.38138284 10.02590479 -1.31640625 7.87890625 C-1.27974854 6.5854126 -1.24309082 5.29191895 -1.20532227 3.95922852 C-1 1 -1 1 0 0 Z " fill="#EF2A29" transform="translate(110,6)"/>
<path d="M0 0 C1.32 0 2.64 0 4 0 C4 0.66 4 1.32 4 2 C4.99 2.33 5.98 2.66 7 3 C7 18.84 7 34.68 7 51 C17.30416359 51 24.56846879 50.40048404 34 47 C34.33 47.66 34.66 48.32 35 49 C33.20963542 49.91145833 31.41927083 50.82291667 29.62890625 51.734375 C27.58363516 53.32350649 27.37454477 54.48896743 27 57 C24.98164215 57.50990093 22.96016125 58.00744664 20.9375 58.5 C19.81214844 58.7784375 18.68679687 59.056875 17.52734375 59.34375 C13.93531222 60.01203494 10.6446432 60.11142858 7 60 C7.00785522 61.17357056 7.00785522 61.17357056 7.01586914 62.37084961 C7.03657106 65.89305833 7.04963838 69.4152543 7.0625 72.9375 C7.07087891 74.16919922 7.07925781 75.40089844 7.08789062 76.66992188 C7.09272461 78.4246582 7.09272461 78.4246582 7.09765625 80.21484375 C7.10551147 81.84087524 7.10551147 81.84087524 7.11352539 83.49975586 C7 86 7 86 6 87 C3 87.125 3 87.125 0 87 C-1 86 -1 86 -1.11352539 83.49975586 C-1.10828857 82.41573486 -1.10305176 81.33171387 -1.09765625 80.21484375 C-1.09443359 79.04501953 -1.09121094 77.87519531 -1.08789062 76.66992188 C-1.07951172 75.43822266 -1.07113281 74.20652344 -1.0625 72.9375 C-1.05798828 71.70193359 -1.05347656 70.46636719 -1.04882812 69.19335938 C-1.03699608 66.12885883 -1.02051173 63.06445279 -1 60 C-2.6396875 60.061875 -2.6396875 60.061875 -4.3125 60.125 C-8 60 -8 60 -11 58 C-7.7 58 -4.4 58 -1 58 C-1.33 56.68 -1.66 55.36 -2 54 C-1.505 53.505 -1.505 53.505 -1 53 C-0.91188404 51.41430349 -0.89307991 49.82468814 -0.90234375 48.23657227 C-0.90564697 47.22204483 -0.9089502 46.2075174 -0.91235352 45.1622467 C-0.92480103 43.50605568 -0.92480103 43.50605568 -0.9375 41.81640625 C-0.94128662 40.69056625 -0.94507324 39.56472626 -0.94897461 38.4047699 C-0.96540466 33.56496865 -0.99351497 28.72525005 -1.02050781 23.88549805 C-1.0385175 20.36247137 -1.05066072 16.83945818 -1.0625 13.31640625 C-1.07079834 12.21430313 -1.07909668 11.11220001 -1.08764648 9.97669983 C-1.09094971 8.95902023 -1.09425293 7.94134064 -1.09765625 6.89282227 C-1.10289307 5.99427017 -1.10812988 5.09571808 -1.11352539 4.16993713 C-1 2 -1 2 0 0 Z " fill="#E82C29" transform="translate(109,121)"/>
<path d="M0 0 C3 0.125 3 0.125 4 1.125 C4.08748207 3.05167507 4.10697334 4.98151861 4.09765625 6.91015625 C4.09282227 8.66489258 4.09282227 8.66489258 4.08789062 10.45507812 C4.07532227 12.30262695 4.07532227 12.30262695 4.0625 14.1875 C4.05798828 15.42306641 4.05347656 16.65863281 4.04882812 17.93164062 C4.03699608 20.99614117 4.02051173 24.06054721 4 27.125 C5.09441406 27.1146875 6.18882813 27.104375 7.31640625 27.09375 C10.41520887 27.12003889 13.00729941 27.39949683 16 28.125 C16 28.455 16 28.785 16 29.125 C14.02090602 29.15186553 12.04171029 29.17133375 10.0625 29.1875 C8.96035156 29.19910156 7.85820313 29.21070312 6.72265625 29.22265625 C4 29.125 4 29.125 3 28.125 C2.84235595 26.34630274 2.74899323 24.56181524 2.68359375 22.77734375 C2.64169922 21.69775391 2.59980469 20.61816406 2.55664062 19.50585938 C2.51732422 18.36955078 2.47800781 17.23324219 2.4375 16.0625 C2.39431641 14.92232422 2.35113281 13.78214844 2.30664062 12.60742188 C2.20017161 9.78007805 2.09815793 6.95264262 2 4.125 C0.68 3.795 -0.64 3.465 -2 3.125 C-2.03758423 4.26714966 -2.03758423 4.26714966 -2.07592773 5.43237305 C-2.19219048 8.89257376 -2.31477978 12.35252254 -2.4375 15.8125 C-2.47681641 17.01068359 -2.51613281 18.20886719 -2.55664062 19.44335938 C-2.61948242 21.17875977 -2.61948242 21.17875977 -2.68359375 22.94921875 C-2.72025146 24.01229248 -2.75690918 25.07536621 -2.79467773 26.1706543 C-2.9848525 28.90704532 -3.3931507 31.45356732 -4 34.125 C-3.34 34.125 -2.68 34.125 -2 34.125 C-2.00222061 34.68796783 -2.00444122 35.25093567 -2.00672913 35.83096313 C-2.02889554 41.70354578 -2.04395397 47.57611648 -2.05493164 53.44873047 C-2.0599526 55.63883955 -2.06677066 57.82894529 -2.07543945 60.01904297 C-2.08760304 63.17155788 -2.09325077 66.32402836 -2.09765625 69.4765625 C-2.10281754 70.45178864 -2.10797882 71.42701477 -2.11329651 72.43179321 C-2.11368069 77.11380819 -1.97426071 81.52001684 -1 86.125 C0.98 86.62 0.98 86.62 3 87.125 C3 70.625 3 54.125 3 37.125 C3.33 37.125 3.66 37.125 4 37.125 C4.33 51.315 4.66 65.505 5 80.125 C7.31 81.115 9.62 82.105 12 83.125 C17.52295141 86.50013697 19.88288347 90.17306815 21.58984375 96.3671875 C21.72519531 96.94726562 21.86054688 97.52734375 22 98.125 C18.535 98.62 18.535 98.62 15 99.125 C15 101.105 15 103.085 15 105.125 C16.32 105.125 17.64 105.125 19 105.125 C19 105.785 19 106.445 19 107.125 C19.66 107.125 20.32 107.125 21 107.125 C20.71083835 113.0528139 18.13452754 116.18022131 14 120.125 C10.82372238 122.39376973 8.84559442 123.1636014 5 124.125 C4.67 138.645 4.34 153.165 4 168.125 C3.67 168.125 3.34 168.125 3 168.125 C3 152.285 3 136.445 3 120.125 C2.34 119.795 1.68 119.465 1 119.125 C1 118.465 1 117.805 1 117.125 C-0.32 117.125 -1.64 117.125 -3 117.125 C-3.33 117.785 -3.66 118.445 -4 119.125 C-4 117.805 -4 116.485 -4 115.125 C-1.69 115.125 0.62 115.125 3 115.125 C3.33 116.445 3.66 117.765 4 119.125 C8.53075374 117.57159872 12.61756522 115.68608435 14.98046875 111.30859375 C15.71343146 109.60522971 16.36359372 107.86674351 17 106.125 C15.68 106.125 14.36 106.125 13 106.125 C13 103.815 13 101.505 13 99.125 C14.32 98.795 15.64 98.465 17 98.125 C14.97337272 92.38288938 13.02587099 89.61233905 8 86.125 C5.78264561 85.27220662 5.78264561 85.27220662 4 85.125 C3.505 87.105 3.505 87.105 3 89.125 C1.02 89.125 -0.96 89.125 -3 89.125 C-3.33 87.805 -3.66 86.485 -4 85.125 C-11.46184609 87.9949408 -14.43718088 90.83741543 -18 98.125 C-20.3520006 99.3010003 -21.73734401 99.24584541 -24.35791016 99.23852539 C-25.70908432 99.23841209 -25.70908432 99.23841209 -27.08755493 99.23829651 C-28.06155243 99.23313522 -29.03554993 99.22797394 -30.0390625 99.22265625 C-31.03505463 99.2212413 -32.03104675 99.21982635 -33.05722046 99.21836853 C-36.24651053 99.21275936 -39.43573106 99.2002053 -42.625 99.1875 C-44.78385315 99.18248618 -46.94270741 99.17792307 -49.1015625 99.17382812 C-54.4010655 99.16278695 -59.70052778 99.14603988 -65 99.125 C-65 98.795 -65 98.465 -65 98.125 C-50.81 98.125 -36.62 98.125 -22 98.125 C-21.34 95.485 -20.68 92.845 -20 90.125 C-16.95063353 84.66155175 -11.60660469 82.42038694 -6 80.125 C-5.34 80.125 -4.68 80.125 -4 80.125 C-4 65.275 -4 50.425 -4 35.125 C-6.31 34.795 -8.62 34.465 -11 34.125 C-11 33.135 -11 32.145 -11 31.125 C-13.10544013 31.40732721 -15.20933589 31.7011898 -17.3125 32 C-18.48425781 32.16242187 -19.65601563 32.32484375 -20.86328125 32.4921875 C-24.14530895 32.94800621 -24.14530895 32.94800621 -27 35.125 C-29.33199388 35.20405064 -31.66832622 35.21298769 -34 35.125 C-25.27570156 29.30880104 -14.34351124 26.97509404 -4 27.125 C-4.00523682 26.34261963 -4.01047363 25.56023926 -4.01586914 24.75415039 C-4.03657106 21.23194167 -4.04963838 17.7097457 -4.0625 14.1875 C-4.07087891 12.95580078 -4.07925781 11.72410156 -4.08789062 10.45507812 C-4.09111328 9.28525391 -4.09433594 8.11542969 -4.09765625 6.91015625 C-4.10289307 5.82613525 -4.10812988 4.74211426 -4.11352539 3.62524414 C-3.94754699 -0.03020706 -3.71360345 0.15473348 0 0 Z " fill="#E82D2F" transform="translate(112,3.875)"/>
<path d="M0 0 C3.69230769 0.69230769 3.69230769 0.69230769 5 2 C5.15764405 3.77869726 5.25100677 5.56318476 5.31640625 7.34765625 C5.37924805 8.96704102 5.37924805 8.96704102 5.44335938 10.61914062 C5.48267578 11.75544922 5.52199219 12.89175781 5.5625 14.0625 C5.60568359 15.20267578 5.64886719 16.34285156 5.69335938 17.51757812 C5.79982738 20.34489508 5.90045262 23.17243092 6 26 C10.29 26 14.58 26 19 26 C19 26.66 19 27.32 19 28 C19.969375 28.12375 20.93875 28.2475 21.9375 28.375 C23.4534375 28.684375 23.4534375 28.684375 25 29 C25.33 29.66 25.66 30.32 26 31 C26.99 31.33 27.98 31.66 29 32 C29 33.32 29 34.64 29 36 C28.17757812 35.9278125 27.35515625 35.855625 26.5078125 35.78125 C24.83332031 35.64203125 24.83332031 35.64203125 23.125 35.5 C21.48917969 35.36078125 21.48917969 35.36078125 19.8203125 35.21875 C16.78128412 35.04473611 13.80201079 34.97759652 10.76123047 34.98632812 C9.4207515 34.98928894 9.4207515 34.98928894 8.05319214 34.99230957 C7.03686203 34.99611633 7.03686203 34.99611633 6 35 C6.00222061 35.56740906 6.00444122 36.13481812 6.00672913 36.71942139 C6.02884984 42.6241391 6.04393501 48.52884505 6.05493164 54.43359375 C6.05996088 56.63737466 6.06678505 58.84115222 6.07543945 61.04492188 C6.0875666 64.21224796 6.09324241 67.37952994 6.09765625 70.546875 C6.10281754 71.53242371 6.10797882 72.51797241 6.11329651 73.53338623 C6.11337204 74.4540387 6.11344757 75.37469116 6.11352539 76.32324219 C6.115746 77.1315448 6.11796661 77.93984741 6.12025452 78.77264404 C6.001452 80.97310595 5.60974898 82.88748207 5 85 C3.35 84.67 1.7 84.34 0 84 C-1.09985852 78.67163874 -1.1449842 73.5261439 -1.1328125 68.11328125 C-1.13424759 66.70504341 -1.13424759 66.70504341 -1.13571167 65.26835632 C-1.13638981 63.29242892 -1.13456113 61.31649925 -1.13037109 59.34057617 C-1.12499962 56.31228672 -1.13033773 53.28414436 -1.13671875 50.25585938 C-1.13605826 48.33333301 -1.13477769 46.41080673 -1.1328125 44.48828125 C-1.13483673 43.58201492 -1.13686096 42.6757486 -1.13894653 41.74201965 C-1.13579437 40.90072006 -1.13264221 40.05942047 -1.12939453 39.19262695 C-1.12859894 38.45349564 -1.12780334 37.71436432 -1.12698364 36.95283508 C-1 35 -1 35 0 32 C-0.66 32 -1.32 32 -2 32 C-1.88202982 27.60324012 -1.75780274 23.20671601 -1.62768555 18.81030273 C-1.58428187 17.31360731 -1.54261087 15.81686061 -1.50268555 14.32006836 C-1.44511384 12.17285688 -1.38138284 10.02590479 -1.31640625 7.87890625 C-1.27974854 6.5854126 -1.24309082 5.29191895 -1.20532227 3.95922852 C-1 1 -1 1 0 0 Z " fill="#EF2A27" transform="translate(110,6)"/>
<path d="M0 0 C1.8075209 2.71128135 2.89445991 5.0469136 4.0625 8.0625 C5.42417865 11.57884439 5.42417865 11.57884439 7 15 C15.25 15.33 23.5 15.66 32 16 C32.495 18.475 32.495 18.475 33 21 C30.20931573 23.79068427 22.71047434 22.50213409 18.8125 22.625 C18.13147217 22.64779022 17.45044434 22.67058044 16.7487793 22.69406128 C-4.1654904 23.35976188 -25.09197033 22.6059701 -46 22 C-46 22.66 -46 23.32 -46 24 C-46.99 24 -47.98 24 -49 24 C-49 23.34 -49 22.68 -49 22 C-50.32 22 -51.64 22 -53 22 C-53 20.02 -53 18.04 -53 16 C-51.02 15.34 -49.04 14.68 -47 14 C-46.67 14.33 -46.34 14.66 -46 15 C-44.52645652 15.09304018 -43.04849409 15.11746265 -41.57202148 15.11352539 C-40.63112167 15.11344986 -39.69022186 15.11337433 -38.72080994 15.11329651 C-37.69790359 15.10813522 -36.67499725 15.10297394 -35.62109375 15.09765625 C-34.058395 15.09553383 -34.058395 15.09553383 -32.46412659 15.09336853 C-29.12188906 15.0877508 -25.77971743 15.0751953 -22.4375 15.0625 C-20.17773534 15.05748728 -17.91796963 15.05292398 -15.65820312 15.04882812 C-10.10544609 15.03777561 -4.55272775 15.02102024 1 15 C0.78053711 14.38511719 0.56107422 13.77023438 0.33496094 13.13671875 C0.05426758 12.32847656 -0.22642578 11.52023438 -0.515625 10.6875 C-0.79696289 9.88699219 -1.07830078 9.08648437 -1.36816406 8.26171875 C-2.13525369 5.51584614 -1.99992918 3.66647783 -1 1 C-0.67 0.67 -0.34 0.34 0 0 Z " fill="#E70D0B" transform="translate(180,87)"/>
<path d="M0 0 C0.33 0 0.66 0 1 0 C1.0253794 6.45954549 1.04287928 12.9190781 1.05493164 19.37866211 C1.05995675 21.5756071 1.06677788 23.77254876 1.07543945 25.96948242 C1.08758475 29.12940292 1.09324659 32.28927915 1.09765625 35.44921875 C1.10281754 36.42960617 1.10797882 37.40999359 1.11329651 38.42008972 C1.11337204 39.34066666 1.11344757 40.26124359 1.11352539 41.2097168 C1.115746 42.0157988 1.11796661 42.8218808 1.12025452 43.65238953 C0.99073534 46.18086474 0.55273825 48.53226148 0 51 C-18.05293461 52.05504163 -32.08062649 46.96116605 -45.78369141 34.93725586 C-50.48718808 30.68909923 -54.63625458 26.40601943 -58 21 C-57.34 19.68 -56.68 18.36 -56 17 C-52.48452117 17.29295657 -51.27476729 17.69290714 -48.875 20.375 C-47.946875 21.674375 -47.946875 21.674375 -47 23 C-46.443125 23.556875 -45.88625 24.11375 -45.3125 24.6875 C-44 26 -44 26 -43 28 C-41.9275 28.28875 -40.855 28.5775 -39.75 28.875 C-36 30 -36 30 -33.734375 31.84375 C-30.54338774 34.36007138 -27.19872916 36.0118665 -23.5 37.625 C-22.45465088 38.08447021 -22.45465088 38.08447021 -21.38818359 38.55322266 C-15.83902578 40.88020738 -10.47506771 42.07089848 -4.4765625 42.7109375 C-2 43 -2 43 0 44 C0 29.48 0 14.96 0 0 Z " fill="#EF2A28" transform="translate(108,128)"/>
<path d="M0 0 C0.79921875 0.00902344 1.5984375 0.01804688 2.421875 0.02734375 C3.02515625 0.03894531 3.6284375 0.05054688 4.25 0.0625 C4.25 1.0525 4.25 2.0425 4.25 3.0625 C6.56 3.3925 8.87 3.7225 11.25 4.0625 C7.8030975 6.360435 5.51015273 6.61458088 1.4375 7.25 C-12.32861696 9.74958419 -24.41383124 16.95924135 -33.8046875 27.33203125 C-35.75 29.0625 -35.75 29.0625 -39.75 29.0625 C-39.75 30.0525 -39.75 31.0425 -39.75 32.0625 C-41.235 32.5575 -41.235 32.5575 -42.75 33.0625 C-43.41 31.7425 -44.07 30.4225 -44.75 29.0625 C-44.29625 28.485 -43.8425 27.9075 -43.375 27.3125 C-41.90886484 25.2824667 -40.80142216 23.32710157 -39.75 21.0625 C-39.09 21.0625 -38.43 21.0625 -37.75 21.0625 C-37.42 20.0725 -37.09 19.0825 -36.75 18.0625 C-34.67578125 16.37890625 -34.67578125 16.37890625 -32.0625 14.625 C-31.16402344 14.01269531 -30.26554687 13.40039062 -29.33984375 12.76953125 C-27.82294549 11.7697054 -26.29773541 10.78193665 -24.75390625 9.82421875 C-23.37661563 8.96877925 -22.05525999 8.02427052 -20.75 7.0625 C-20.75 6.0725 -20.75 5.0825 -20.75 4.0625 C-19.96753906 4.01351562 -19.18507813 3.96453125 -18.37890625 3.9140625 C-17.36699219 3.83929688 -16.35507813 3.76453125 -15.3125 3.6875 C-14.30316406 3.61789063 -13.29382813 3.54828125 -12.25390625 3.4765625 C-11.01447266 3.27160156 -11.01447266 3.27160156 -9.75 3.0625 C-9.42 2.4025 -9.09 1.7425 -8.75 1.0625 C-5.81699331 0.0307565 -3.08787164 -0.04540988 0 0 Z " fill="#DA373B" transform="translate(96.75,34.9375)"/>
<path d="M0 0 C12.00565253 10.91422958 19.97547053 27.18023576 21.17578125 43.37109375 C21.18510149 44.91514651 21.10746535 46.45966335 21 48 C18.3573028 45.70424908 17.37466878 43.77156016 16.375 40.4375 C15.37113631 37.14589919 15.37113631 37.14589919 14 34 C12.40210649 38.95346987 13.71693186 43.13282415 15 48 C12.6479994 49.1760003 11.26265599 49.12084541 8.64208984 49.11352539 C7.29091568 49.11341209 7.29091568 49.11341209 5.91244507 49.11329651 C4.93844757 49.10813522 3.96445007 49.10297394 2.9609375 49.09765625 C1.96494537 49.0962413 0.96895325 49.09482635 -0.05722046 49.09336853 C-3.24651053 49.08775936 -6.43573106 49.0752053 -9.625 49.0625 C-11.78385315 49.05748618 -13.94270741 49.05292307 -16.1015625 49.04882812 C-21.4010655 49.03778695 -26.70052778 49.02103988 -32 49 C-32 48.67 -32 48.34 -32 48 C-17.48 48 -2.96 48 12 48 C10.70040663 41.50203317 9.47518492 35.86874576 7.125 29.8125 C6.88136719 29.15314453 6.63773438 28.49378906 6.38671875 27.81445312 C5.09371844 24.41446526 3.64761127 21.27618404 1.8046875 18.13671875 C0 15 0 15 0 13 C-0.66 13 -1.32 13 -2 13 C-2.103125 12.360625 -2.20625 11.72125 -2.3125 11.0625 C-2.539375 10.381875 -2.76625 9.70125 -3 9 C-3.99 8.67 -4.98 8.34 -6 8 C-7.6875 5.9375 -7.6875 5.9375 -9 4 C-5.26512223 4.4979837 -3.18762365 4.87491756 0 7 C0 7.99 0 8.98 0 10 C0.66 10 1.32 10 2 10 C2.12375 10.639375 2.2475 11.27875 2.375 11.9375 C2.58125 12.618125 2.7875 13.29875 3 14 C3.66 14.33 4.32 14.66 5 15 C5.12375 15.928125 5.2475 16.85625 5.375 17.8125 C6.10207787 21.52059715 7.21643191 22.56437792 10 25 C10.495 25.99 10.495 25.99 11 27 C10.505 21.555 10.505 21.555 10 16 C9.34 16 8.68 16 8 16 C6.7109375 14.609375 6.7109375 14.609375 5.375 12.75 C4.92898437 12.14671875 4.48296875 11.5434375 4.0234375 10.921875 C3 9 3 9 3 5 C2.01 4.67 1.02 4.34 0 4 C0 2.68 0 1.36 0 0 Z " fill="#D63638" transform="translate(166,54)"/>
<path d="M0 0 C0.33 0 0.66 0 1 0 C1.33 14.19 1.66 28.38 2 43 C4.31 43.99 6.62 44.98 9 46 C14.52295141 49.37513697 16.88288347 53.04806815 18.58984375 59.2421875 C18.72519531 59.82226562 18.86054688 60.40234375 19 61 C15.535 61.495 15.535 61.495 12 62 C12 63.98 12 65.96 12 68 C13.32 68 14.64 68 16 68 C16 68.66 16 69.32 16 70 C16.66 70 17.32 70 18 70 C17.71083835 75.9278139 15.13452754 79.05522131 11 83 C7.82372238 85.26876973 5.84559442 86.0386014 2 87 C1.67 101.52 1.34 116.04 1 131 C0.67 131 0.34 131 0 131 C0 115.16 0 99.32 0 83 C-0.66 82.67 -1.32 82.34 -2 82 C-2 81.34 -2 80.68 -2 80 C-3.32 80 -4.64 80 -6 80 C-6.495 80.99 -6.495 80.99 -7 82 C-7 80.68 -7 79.36 -7 78 C-4.69 78 -2.38 78 0 78 C0.33 79.32 0.66 80.64 1 82 C5.53075374 80.44659872 9.61756522 78.56108435 11.98046875 74.18359375 C12.71343146 72.48022971 13.36359372 70.74174351 14 69 C12.68 69 11.36 69 10 69 C10 66.69 10 64.38 10 62 C11.98 61.505 11.98 61.505 14 61 C11.97337272 55.25788938 10.02587099 52.48733905 5 49 C2.78264561 48.14720662 2.78264561 48.14720662 1 48 C0.67 49.32 0.34 50.64 0 52 C-1.98 52 -3.96 52 -6 52 C-6.33 50.68 -6.66 49.36 -7 48 C-6.34 48.66 -5.68 49.32 -5 50 C-3.35 50 -1.7 50 0 50 C0 33.5 0 17 0 0 Z " fill="#BF3B3E" transform="translate(115,41)"/>
<path d="M0 0 C0.90932785 0.00358521 1.8186557 0.00717041 2.75553894 0.01086426 C15.49414632 0.08204844 28.23140859 0.32608574 40.96789551 0.55731201 C44.38807833 0.61899557 47.80829854 0.67853302 51.22851562 0.73828125 C57.87763923 0.85485212 64.52672385 0.97346545 71.17578125 1.09375 C71.17578125 2.08375 71.17578125 3.07375 71.17578125 4.09375 C68.28437895 5.05755077 66.34924202 5.24487024 63.3371582 5.29907227 C62.35636795 5.31901749 61.3755777 5.33896271 60.36506653 5.35951233 C59.3087352 5.37622482 58.25240387 5.39293732 57.1640625 5.41015625 C55.53902046 5.4413279 55.53902046 5.4413279 53.88114929 5.47312927 C50.41692509 5.53856797 46.95262445 5.59748353 43.48828125 5.65625 C41.1412681 5.69944061 38.79426272 5.74305507 36.44726562 5.78710938 C30.69018521 5.89424357 24.93302858 5.99602064 19.17578125 6.09375 C18.51578125 7.41375 17.85578125 8.73375 17.17578125 10.09375 C16.41265625 9.289375 15.64953125 8.485 14.86328125 7.65625 C11.2523796 4.21329726 8.86488837 3.96837944 4.0703125 3.99609375 C2.59594727 4.00092773 2.59594727 4.00092773 1.09179688 4.00585938 C-0.44444336 4.01842773 -0.44444336 4.01842773 -2.01171875 4.03125 C-3.04748047 4.03576172 -4.08324219 4.04027344 -5.15039062 4.04492188 C-7.70839141 4.0567099 -10.26627608 4.07316485 -12.82421875 4.09375 C-12.82421875 3.10375 -12.82421875 2.11375 -12.82421875 1.09375 C-8.55196172 -0.10507889 -4.40600768 -0.03363783 0 0 Z " fill="#E90A08" transform="translate(24.82421875,102.90625)"/>
<path d="M0 0 C0.66 0 1.32 0 2 0 C2.33 8.58 2.66 17.16 3 26 C3.66 26 4.32 26 5 26 C5 27.32 5 28.64 5 30 C4.34 30 3.68 30 3 30 C3.00222061 30.60499329 3.00444122 31.20998657 3.00672913 31.83331299 C3.0288443 38.12731333 3.04393271 44.42130265 3.05493164 50.71533203 C3.05996189 53.06462045 3.0667868 55.41390573 3.07543945 57.76318359 C3.08756218 61.13900526 3.0932414 64.51478555 3.09765625 67.890625 C3.10281754 68.94179504 3.10797882 69.99296509 3.11329651 71.07598877 C3.11337204 72.05670349 3.11344757 73.03741821 3.11352539 74.04785156 C3.115746 74.90944885 3.11796661 75.77104614 3.12025452 76.65875244 C3.00477013 78.90712987 2.62859079 80.84415328 2 83 C1.01 82.67 0.02 82.34 -1 82 C-2.01010626 76.98006277 -2.14523748 72.19164575 -2.1328125 67.09765625 C-2.13417709 66.23461884 -2.13554169 65.37158142 -2.13694763 64.48239136 C-2.13897079 61.67572172 -2.13266187 58.86915884 -2.125 56.0625 C-2.12378143 55.10868439 -2.12256287 54.15486877 -2.12130737 53.17214966 C-2.10218832 40.42241273 -1.96399456 27.68117022 -1.5625 14.9375 C-1.52334473 13.64400635 -1.48418945 12.3505127 -1.44384766 11.01782227 C-1.12969218 2.25938437 -1.12969218 2.25938437 0 0 Z " fill="#F10909" transform="translate(111,8)"/>
<path d="M0 0 C0.00808685 0.56962967 0.01617371 1.13925934 0.02450562 1.72615051 C0.1104667 7.64717188 0.20996639 13.56785519 0.31738281 19.48852539 C0.35570017 21.69907968 0.39054814 23.90969692 0.421875 26.12036133 C0.46746552 29.29531371 0.52547003 32.46983172 0.5859375 35.64453125 C0.59748871 36.63524124 0.60903992 37.62595123 0.62094116 38.64668274 C0.64081085 39.56741074 0.66068054 40.48813873 0.68115234 41.43676758 C0.69447601 42.2472908 0.70779968 43.05781403 0.7215271 43.89289856 C0.88223777 46.30100191 0.88223777 46.30100191 3 49 C2.625 51.1875 2.625 51.1875 2 53 C1.34 53 0.68 53 0 53 C0 61.25 0 69.5 0 78 C-1.32 78 -2.64 78 -4 78 C-4.02505615 77.26885986 -4.0501123 76.53771973 -4.07592773 75.78442383 C-4.19222641 72.46028583 -4.31479928 69.13640759 -4.4375 65.8125 C-4.49647461 64.08676758 -4.49647461 64.08676758 -4.55664062 62.32617188 C-4.59853516 61.21435547 -4.64042969 60.10253906 -4.68359375 58.95703125 C-4.72025146 57.93585205 -4.75690918 56.91467285 -4.79467773 55.86254883 C-4.91117982 53.03436339 -4.91117982 53.03436339 -5.64477539 50.50268555 C-6 48 -6 48 -5.08837891 45.28466797 C-3.65456992 40.95751093 -3.64636655 36.97496213 -3.5859375 32.4453125 C-3.56657135 31.54376434 -3.5472052 30.64221619 -3.5272522 29.71334839 C-3.46775704 26.85066004 -3.42119183 23.98793082 -3.375 21.125 C-3.33679253 19.17706637 -3.2977392 17.22914914 -3.2578125 15.28125 C-3.16208035 10.52096742 -3.07793884 5.7606058 -3 1 C-1 0 -1 0 0 0 Z " fill="#F20708" transform="translate(113,127)"/>
<path d="M0 0 C4.31248609 -0.02886537 8.62494762 -0.04675255 12.9375 -0.0625 C14.16919922 -0.07087891 15.40089844 -0.07925781 16.66992188 -0.08789062 C17.83974609 -0.09111328 19.00957031 -0.09433594 20.21484375 -0.09765625 C21.84087524 -0.10551147 21.84087524 -0.10551147 23.49975586 -0.11352539 C26 0 26 0 27 1 C27.125 4 27.125 4 27 7 C26 8 26 8 23.49975586 8.11352539 C22.41573486 8.10828857 21.33171387 8.10305176 20.21484375 8.09765625 C19.04501953 8.09443359 17.87519531 8.09121094 16.66992188 8.08789062 C15.43822266 8.07951172 14.20652344 8.07113281 12.9375 8.0625 C11.08415039 8.05573242 11.08415039 8.05573242 9.19335938 8.04882812 C6.12885883 8.03699608 3.06445279 8.02051173 0 8 C0.05800781 9.49660156 0.05800781 9.49660156 0.1171875 11.0234375 C-0.00560511 15.19020016 -0.75657554 18.61663204 -1.875 22.625 C-2.39707031 24.53152344 -2.39707031 24.53152344 -2.9296875 26.4765625 C-3.81867091 29.40306994 -4.80421236 32.18828312 -6 35 C-6.33 35 -6.66 35 -7 35 C-6.855625 33.948125 -6.71125 32.89625 -6.5625 31.8125 C-5.81616844 25.89515692 -5.42610508 19.94733899 -5 14 C-5.66 14 -6.32 14 -7 14 C-7.10957031 14.63808594 -7.21914062 15.27617188 -7.33203125 15.93359375 C-7.49058594 16.75988281 -7.64914063 17.58617188 -7.8125 18.4375 C-7.96332031 19.26121094 -8.11414063 20.08492187 -8.26953125 20.93359375 C-8.51058594 21.61550781 -8.75164062 22.29742187 -9 23 C-9.99 23.33 -10.98 23.66 -12 24 C-11.34 19.05 -10.68 14.1 -10 9 C-24.19 8.67 -38.38 8.34 -53 8 C-53 7.67 -53 7.34 -53 7 C-52.175783 7.00333092 -52.175783 7.00333092 -51.33491516 7.00672913 C-13.15581612 7.17198229 -13.15581612 7.17198229 25 6 C25 4.68 25 3.36 25 2 C16.75 1.67 8.5 1.34 0 1 C0 0.67 0 0.34 0 0 Z " fill="#C42F31" transform="translate(187,102)"/>
<path d="M0 0 C1.8075209 2.71128135 2.89445991 5.0469136 4.0625 8.0625 C5.42417865 11.57884439 5.42417865 11.57884439 7 15 C15.25 15.33 23.5 15.66 32 16 C32.495 18.475 32.495 18.475 33 21 C32 22 32 22 29.49975586 22.11352539 C28.41573486 22.10828857 27.33171387 22.10305176 26.21484375 22.09765625 C25.04501953 22.09443359 23.87519531 22.09121094 22.66992188 22.08789062 C21.43822266 22.07951172 20.20652344 22.07113281 18.9375 22.0625 C17.08415039 22.05573242 17.08415039 22.05573242 15.19335938 22.04882812 C12.12885883 22.03699608 9.06445279 22.02051173 6 22 C6.66 21.01 7.32 20.02 8 19 C10.33837891 18.7512207 10.33837891 18.7512207 13.2265625 18.92578125 C14.2578125 18.98056641 15.2890625 19.03535156 16.3515625 19.09179688 C17.43179688 19.16462891 18.51203125 19.23746094 19.625 19.3125 C20.71296875 19.37373047 21.8009375 19.43496094 22.921875 19.49804688 C25.61569749 19.65164202 28.30786572 19.81953408 31 20 C31 19.01 31 18.02 31 17 C3.28 17 -24.44 17 -53 17 C-51.68 16.01 -50.36 15.02 -49 14 C-48.01 14.33 -47.02 14.66 -46 15 C-44.45029552 15.08687799 -42.89710293 15.1176866 -41.3449707 15.11352539 C-40.40422195 15.11344986 -39.46347321 15.11337433 -38.49421692 15.11329651 C-36.97534126 15.10555458 -36.97534126 15.10555458 -35.42578125 15.09765625 C-34.38681198 15.0962413 -33.34784271 15.09482635 -32.27738953 15.09336853 C-28.95573052 15.08776656 -25.63413867 15.07521372 -22.3125 15.0625 C-20.06184993 15.05748525 -17.81119881 15.0529223 -15.56054688 15.04882812 C-10.04034163 15.03779649 -4.52017561 15.02105643 1 15 C0.78053711 14.38511719 0.56107422 13.77023438 0.33496094 13.13671875 C0.05426758 12.32847656 -0.22642578 11.52023438 -0.515625 10.6875 C-0.79696289 9.88699219 -1.07830078 9.08648437 -1.36816406 8.26171875 C-2.13525369 5.51584614 -1.99992918 3.66647783 -1 1 C-0.67 0.67 -0.34 0.34 0 0 Z " fill="#F42822" transform="translate(180,87)"/>
<path d="M0 0 C10.03125631 3.58131886 19.32173611 9.66299229 27 17 C27 17.66 27 18.32 27 19 C22.125 17.25 22.125 17.25 21 15 C20.01 14.67 19.02 14.34 18 14 C18 13.34 18 12.68 18 12 C15.525 11.505 15.525 11.505 13 11 C13 10.01 13 9.02 13 8 C10.36 7.67 7.72 7.34 5 7 C5 7.99 5 8.98 5 10 C5.99 10 6.98 10 8 10 C8 10.99 8 11.98 8 13 C8.66 13 9.32 13 10 13 C10 13.66 10 14.32 10 15 C5.97890444 13.71705075 2.16316892 12.22308241 -1.6875 10.5 C-7.38079322 8.08444756 -12.88480858 6.80653115 -19 6 C-19 5.67 -19 5.34 -19 5 C-16.41633755 5.14120016 -13.83317115 5.28778333 -11.25 5.4375 C-10.52039063 5.47681641 -9.79078125 5.51613281 -9.0390625 5.55664062 C-5.5727027 5.76147098 -2.34666974 6.0852002 1 7 C1 5.68 1 4.36 1 3 C-0.32 2.67 -1.64 2.34 -3 2 C-3 1.34 -3 0.68 -3 0 C-6.3 0 -9.6 0 -13 0 C-7.79018667 -2.60490667 -5.36206785 -1.67185637 0 0 Z " fill="#DC383A" transform="translate(138,35)"/>
<path d="M0 0 C0.33 0 0.66 0 1 0 C1.20753906 1.13695313 1.41507813 2.27390625 1.62890625 3.4453125 C4.69906122 19.23590807 10.29612443 30.76107251 21 43 C22.01358174 44.32303811 23.01897561 45.65264372 24 47 C22.35 46.67 20.7 46.34 19 46 C19 45.34 19 44.68 19 44 C18.34 43.67 17.68 43.34 17 43 C15.48883955 41.23841868 14.06334171 39.42123234 12.6328125 37.59375 C10.77625683 35.78160953 9.52982955 35.39425915 7 35 C7.33 35.99 7.66 36.98 8 38 C6.515 38.495 6.515 38.495 5 39 C1.40400169 33.86784708 -1.97291116 28.96202601 -4 23 C-3.505 21.515 -3.505 21.515 -3 20 C-2.32591692 21.26691507 -1.66099503 22.53870749 -1 23.8125 C-0.62875 24.52019531 -0.2575 25.22789062 0.125 25.95703125 C1 28 1 28 1 31 C2.32 31.33 3.64 31.66 5 32 C6.10348268 28.68955197 5.99444068 26.34493684 5 23 C4.34 22.67 3.68 22.34 3 22 C2.40234375 19.75 2.40234375 19.75 1.9375 17 C1.5954649 13.69940294 1.5954649 13.69940294 0 11 C-0.07226502 9.14712498 -0.0838122 7.29166122 -0.0625 5.4375 C-0.05347656 4.42558594 -0.04445312 3.41367188 -0.03515625 2.37109375 C-0.02355469 1.58863281 -0.01195312 0.80617188 0 0 Z " fill="#DD363E" transform="translate(45,110)"/>
<path d="M0 0 C0.66 0.66 1.32 1.32 2 2 C0.97519531 2.74765625 -0.04960938 3.4953125 -1.10546875 4.265625 C-2.46618862 5.26035814 -3.82686331 6.25515308 -5.1875 7.25 C-6.19780273 7.98669922 -6.19780273 7.98669922 -7.22851562 8.73828125 C-9.15863521 10.15056387 -11.08085844 11.57284669 -13 13 C-13.96164063 13.71414062 -14.92328125 14.42828125 -15.9140625 15.1640625 C-18.57174793 17.50322383 -19.05112326 19.64243614 -20 23 C-20.66 23.66 -21.32 24.32 -22 25 C-20.68 25.66 -19.36 26.32 -18 27 C-18 26.01 -18 25.02 -18 24 C-16.68 23.67 -15.36 23.34 -14 23 C-15.69596176 26.51123741 -17.61028123 29.87539218 -19.5625 33.25 C-20.18253906 34.32765625 -20.80257812 35.4053125 -21.44140625 36.515625 C-21.95574219 37.33546875 -22.47007813 38.1553125 -23 39 C-23.33 39 -23.66 39 -24 39 C-23.67 35.7 -23.34 32.4 -23 29 C-23.99 29.99 -24.98 30.98 -26 32 C-27.485 32.495 -27.485 32.495 -29 33 C-29 24.69260666 -22.26728513 17.98892643 -16.75 12.25 C-11.64085017 7.31091896 -6.17001153 3.49673767 0 0 Z " fill="#D53C41" transform="translate(75,40)"/>
<path d="M0 0 C1.32 0.33 2.64 0.66 4 1 C4 2.98 4 4.96 4 7 C2.68 7.33 1.36 7.66 0 8 C2.34257824 14.637305 5.10112488 17.84535849 11.375 21.3125 C11.91125 21.539375 12.4475 21.76625 13 22 C13 23.32 13 24.64 13 26 C6.72159922 24.82279985 1.93889251 22.12912307 -2 17 C-2.99 14.03 -3.98 11.06 -5 8 C-19.52 8 -34.04 8 -49 8 C-49 7.67 -49 7.34 -49 7 C-32.17 7 -15.34 7 2 7 C2 5.02 2 3.04 2 1 C1.34 0.67 0.68 0.34 0 0 Z " fill="#BB3137" transform="translate(95,102)"/>
<path d="M0 0 C0.79921875 0.00902344 1.5984375 0.01804688 2.421875 0.02734375 C3.02515625 0.03894531 3.6284375 0.05054688 4.25 0.0625 C3.92 1.3825 3.59 2.7025 3.25 4.0625 C1.6 4.0625 -0.05 4.0625 -1.75 4.0625 C-1.75 4.7225 -1.75 5.3825 -1.75 6.0625 C-2.38808594 6.18367188 -3.02617188 6.30484375 -3.68359375 6.4296875 C-4.50988281 6.59726562 -5.33617188 6.76484375 -6.1875 6.9375 C-7.01121094 7.09992187 -7.83492187 7.26234375 -8.68359375 7.4296875 C-9.36550781 7.63851562 -10.04742187 7.84734375 -10.75 8.0625 C-11.08 8.7225 -11.41 9.3825 -11.75 10.0625 C-16.19320697 11.98115756 -20.97628119 13.29254535 -25.75 14.0625 C-23 8.3125 -23 8.3125 -20.75 6.0625 C-20.75 5.4025 -20.75 4.7425 -20.75 4.0625 C-19.96753906 4.01351562 -19.18507813 3.96453125 -18.37890625 3.9140625 C-17.36699219 3.83929688 -16.35507813 3.76453125 -15.3125 3.6875 C-14.30316406 3.61789063 -13.29382813 3.54828125 -12.25390625 3.4765625 C-11.01447266 3.27160156 -11.01447266 3.27160156 -9.75 3.0625 C-9.42 2.4025 -9.09 1.7425 -8.75 1.0625 C-5.81699331 0.0307565 -3.08787164 -0.04540988 0 0 Z " fill="#F12929" transform="translate(96.75,34.9375)"/>
<path d="M0 0 C0.6824176 0.02361099 1.36483521 0.04722198 2.06793213 0.07154846 C4.23822558 0.14785585 6.40813214 0.23202031 8.578125 0.31640625 C10.05336676 0.36965998 11.52862716 0.42240014 13.00390625 0.47460938 C16.61221412 0.60342575 20.2202171 0.73928819 23.828125 0.87890625 C23.828125 1.86890625 23.828125 2.85890625 23.828125 3.87890625 C23.14186035 3.86843262 22.4555957 3.85795898 21.74853516 3.84716797 C18.65010211 3.80568751 15.55172739 3.77960556 12.453125 3.75390625 C11.37289062 3.73714844 10.29265625 3.72039062 9.1796875 3.703125 C7.6328125 3.69345703 7.6328125 3.69345703 6.0546875 3.68359375 C5.10158691 3.67312012 4.14848633 3.66264648 3.16650391 3.65185547 C0.6358037 3.64758758 0.6358037 3.64758758 -1.171875 5.87890625 C-2.80582085 5.69405152 -4.43961599 5.49261609 -6.05908203 5.20751953 C-10.04638189 4.5873548 -14.08252514 4.50320309 -18.109375 4.31640625 C-19.42131836 4.25163086 -19.42131836 4.25163086 -20.75976562 4.18554688 C-22.89699495 4.08043724 -25.03441738 3.9792664 -27.171875 3.87890625 C-26.841875 3.21890625 -26.511875 2.55890625 -26.171875 1.87890625 C-23.70720517 1.59051907 -21.33257214 1.41126227 -18.859375 1.31640625 C-14.07016614 1.21590023 -14.07016614 1.21590023 -9.39282227 0.35595703 C-6.22152751 -0.32522467 -3.23811781 -0.11943877 0 0 Z " fill="#EF0A08" transform="translate(187.171875,103.12109375)"/>
<path d="M0 0 C0.66 0.33 1.32 0.66 2 1 C2 2.32 2 3.64 2 5 C0.9275 5.4125 -0.145 5.825 -1.25 6.25 C-7.12180964 8.79524007 -9.23623904 12.34685259 -12 18 C-14.3520006 19.1760003 -15.73734401 19.12084541 -18.35791016 19.11352539 C-19.70908432 19.11341209 -19.70908432 19.11341209 -21.08755493 19.11329651 C-22.06155243 19.10813522 -23.03554993 19.10297394 -24.0390625 19.09765625 C-25.03505463 19.0962413 -26.03104675 19.09482635 -27.05722046 19.09336853 C-30.24651053 19.08775936 -33.43573106 19.0752053 -36.625 19.0625 C-38.78385315 19.05748618 -40.94270741 19.05292307 -43.1015625 19.04882812 C-48.4010655 19.03778695 -53.70052778 19.02103988 -59 19 C-59 18.67 -59 18.34 -59 18 C-44.81 18 -30.62 18 -16 18 C-15.34 15.36 -14.68 12.72 -14 10 C-11.00511497 4.63416432 -5.63077802 2.06004074 0 0 Z " fill="#C93F44" transform="translate(106,84)"/>
<path d="M0 0 C0.66 0 1.32 0 2 0 C2 3.63 2 7.26 2 11 C1.01 11.33 0.02 11.66 -1 12 C-1.80212628 13.87387216 -1.80212628 13.87387216 -2.1875 16.0625 C-2.42533203 17.16271484 -2.42533203 17.16271484 -2.66796875 18.28515625 C-2.77753906 18.85105469 -2.88710938 19.41695312 -3 20 C-3.66 20 -4.32 20 -5 20 C-5.66 22.97 -6.32 25.94 -7 29 C-8.32 28.67 -9.64 28.34 -11 28 C-10.546047 25.79076207 -10.08663994 23.58264447 -9.625 21.375 C-9.24214844 19.53035156 -9.24214844 19.53035156 -8.8515625 17.6484375 C-8.07956406 14.34088457 -7.08802743 11.21315334 -6 8 C-5.8453125 6.63875 -5.8453125 6.63875 -5.6875 5.25 C-5.460625 4.5075 -5.23375 3.765 -5 3 C-2.4375 1.6875 -2.4375 1.6875 0 1 C0 0.67 0 0.34 0 0 Z " fill="#EC2C28" transform="translate(50,69)"/>
<path d="M0 0 C0.99 0.33 1.98 0.66 3 1 C2.58169634 8.22124213 2.04538889 15.04567778 0 22 C-0.66 22 -1.32 22 -2 22 C-2.33 22.99 -2.66 23.98 -3 25 C-4.32 24.67 -5.64 24.34 -7 24 C-6.71926927 21.85270859 -6.42511501 19.70716807 -6.125 17.5625 C-5.88136719 15.77005859 -5.88136719 15.77005859 -5.6328125 13.94140625 C-5.42398438 12.97074219 -5.21515625 12.00007813 -5 11 C-4.34 10.67 -3.68 10.34 -3 10 C-2.349461 7.91388442 -2.349461 7.91388442 -1.9375 5.5 C-1.09393346 1.09393346 -1.09393346 1.09393346 0 0 Z " fill="#F52727" transform="translate(180,115)"/>
<path d="M0 0 C14.52 0 29.04 0 44 0 C43.01 0.33 42.02 0.66 41 1 C41 1.66 41 2.32 41 3 C27.47 3 13.94 3 0 3 C0 2.01 0 1.02 0 0 Z " fill="#E10C07" transform="translate(47,104)"/>
<path d="M0 0 C1.32 0 2.64 0 4 0 C5.1760003 2.3520006 5.12084541 3.73734401 5.11352539 6.35791016 C5.11341209 7.70908432 5.11341209 7.70908432 5.11329651 9.08755493 C5.10813522 10.06155243 5.10297394 11.03554993 5.09765625 12.0390625 C5.0962413 13.03505463 5.09482635 14.03104675 5.09336853 15.05722046 C5.08775936 18.24651053 5.0752053 21.43573106 5.0625 24.625 C5.05748618 26.78385315 5.05292307 28.94270741 5.04882812 31.1015625 C5.03778695 36.4010655 5.02103988 41.70052778 5 47 C4.67 47 4.34 47 4 47 C3.67 33.8 3.34 20.6 3 7 C2.34 7 1.68 7 1 7 C1 20.53 1 34.06 1 48 C0.67 48 0.34 48 0 48 C-0.16801189 41.48568186 -0.32794171 34.97120174 -0.48217773 28.45654297 C-0.53564069 26.23904904 -0.59097328 24.02159938 -0.64819336 21.80419922 C-0.72998452 18.62216745 -0.8051129 15.44003851 -0.87890625 12.2578125 C-0.90594131 11.26194122 -0.93297638 10.26606995 -0.96083069 9.24002075 C-0.98092697 8.31921722 -1.00102325 7.3984137 -1.02172852 6.44970703 C-1.04171402 5.6369632 -1.06169952 4.82421936 -1.08229065 3.98684692 C-1 2 -1 2 0 0 Z " fill="#F2201E" transform="translate(109,121)"/>
<path d="M0 0 C0.99 0.495 0.99 0.495 2 1 C2 9.58 2 18.16 2 27 C2.66 26.01 3.32 25.02 4 24 C4.19720979 27.58286819 4.38107522 31.16630057 4.5625 34.75 C4.61857422 35.76578125 4.67464844 36.7815625 4.73242188 37.828125 C4.78076172 38.8078125 4.82910156 39.7875 4.87890625 40.796875 C4.9260376 41.69760742 4.97316895 42.59833984 5.02172852 43.52636719 C5.00110175 45.87457408 4.67823071 47.76206702 4 50 C3.01 49.67 2.02 49.34 1 49 C-0.11548332 43.63487263 -0.12858261 38.458154 -0.09765625 33.0078125 C-0.0962413 32.06187225 -0.09482635 31.11593201 -0.09336853 30.1413269 C-0.08779484 27.13585171 -0.0752472 24.13045247 -0.0625 21.125 C-0.0574816 19.08073025 -0.05291929 17.03645932 -0.04882812 14.9921875 C-0.03783403 9.99476264 -0.02058757 4.99739417 0 0 Z " fill="#EB1010" transform="translate(109,41)"/>
<path d="M0 0 C0.66 0.33 1.32 0.66 2 1 C-0.05803488 4.60156104 -2.24535883 7.88992126 -5 11 C-5.66 11 -6.32 11 -7 11 C-7 12.98 -7 14.96 -7 17 C-8.65 17 -10.3 17 -12 17 C-12 17.99 -12 18.98 -12 20 C-12.99 20.33 -13.98 20.66 -15 21 C-15.66 19.68 -16.32 18.36 -17 17 C-16.54625 16.4225 -16.0925 15.845 -15.625 15.25 C-14.15886484 13.2199667 -13.05142216 11.26460157 -12 9 C-11.34 9 -10.68 9 -10 9 C-9.67 8.01 -9.34 7.02 -9 6 C-6.93359375 4.39453125 -6.93359375 4.39453125 -4.4375 2.8125 C-3.19806641 2.01779297 -3.19806641 2.01779297 -1.93359375 1.20703125 C-1.29550781 0.80871094 -0.65742187 0.41039062 0 0 Z " fill="#F3242D" transform="translate(69,47)"/>
<path d="M0 0 C3.69230769 0.69230769 3.69230769 0.69230769 5 2 C5.09692695 3.73360243 5.13201459 5.47074266 5.140625 7.20703125 C5.15996094 8.26857422 5.17929688 9.33011719 5.19921875 10.42382812 C5.23289463 12.67104558 5.25128835 14.91854739 5.25390625 17.16601562 C5.18612549 23.54588209 5.18612549 23.54588209 8.546875 28.63671875 C9.35640625 29.08660156 10.1659375 29.53648438 11 30 C11 30.66 11 31.32 11 32 C9.35 32 7.7 32 6 32 C6 30.68 6 29.36 6 28 C5.34 28 4.68 28 4 28 C2.69524382 25.39048764 2.88698428 23.47298715 2.90234375 20.5546875 C2.90556641 19.47832031 2.90878906 18.40195312 2.91210938 17.29296875 C2.92048828 16.16503906 2.92886719 15.03710938 2.9375 13.875 C2.94201172 12.73933594 2.94652344 11.60367187 2.95117188 10.43359375 C2.96298385 7.62234362 2.97945493 4.8111977 3 2 C2.34 2 1.68 2 1 2 C0.67 11.9 0.34 21.8 0 32 C-0.66 32 -1.32 32 -2 32 C-1.88202982 27.60324012 -1.75780274 23.20671601 -1.62768555 18.81030273 C-1.58428187 17.31360731 -1.54261087 15.81686061 -1.50268555 14.32006836 C-1.44511384 12.17285688 -1.38138284 10.02590479 -1.31640625 7.87890625 C-1.27974854 6.5854126 -1.24309082 5.29191895 -1.20532227 3.95922852 C-1 1 -1 1 0 0 Z " fill="#F62521" transform="translate(110,6)"/>
<path d="M0 0 C3 0.125 3 0.125 4 1.125 C4.08748207 3.05167507 4.10697334 4.98151861 4.09765625 6.91015625 C4.09443359 8.07998047 4.09121094 9.24980469 4.08789062 10.45507812 C4.07951172 11.68677734 4.07113281 12.91847656 4.0625 14.1875 C4.05798828 15.42306641 4.05347656 16.65863281 4.04882812 17.93164062 C4.03699608 20.99614117 4.02051173 24.06054721 4 27.125 C5.09441406 27.1146875 6.18882813 27.104375 7.31640625 27.09375 C10.41520887 27.12003889 13.00729941 27.39949683 16 28.125 C16 28.455 16 28.785 16 29.125 C14.02090602 29.15186553 12.04171029 29.17133375 10.0625 29.1875 C8.96035156 29.19910156 7.85820313 29.21070312 6.72265625 29.22265625 C4 29.125 4 29.125 3 28.125 C2.84235595 26.34630274 2.74899323 24.56181524 2.68359375 22.77734375 C2.64169922 21.69775391 2.59980469 20.61816406 2.55664062 19.50585938 C2.51732422 18.36955078 2.47800781 17.23324219 2.4375 16.0625 C2.39431641 14.92232422 2.35113281 13.78214844 2.30664062 12.60742188 C2.20017161 9.78007805 2.09815793 6.95264262 2 4.125 C0.68 3.795 -0.64 3.465 -2 3.125 C-2.33 11.705 -2.66 20.285 -3 29.125 C-11.415 29.62 -11.415 29.62 -20 30.125 C-15.17509258 26.90839506 -9.67342021 27.46203486 -4 27.125 C-4.00523682 26.34261963 -4.01047363 25.56023926 -4.01586914 24.75415039 C-4.03657106 21.23194167 -4.04963838 17.7097457 -4.0625 14.1875 C-4.07087891 12.95580078 -4.07925781 11.72410156 -4.08789062 10.45507812 C-4.09111328 9.28525391 -4.09433594 8.11542969 -4.09765625 6.91015625 C-4.10289307 5.82613525 -4.10812988 4.74211426 -4.11352539 3.62524414 C-3.94754699 -0.03020706 -3.71360345 0.15473348 0 0 Z " fill="#C43839" transform="translate(112,3.875)"/>
<path d="M0 0 C0.33 0 0.66 0 1 0 C1 15.18 1 30.36 1 46 C-3.38464422 46.87692884 -5.36869452 47.01993369 -9.5625 46.25 C-10.95662109 46.01023437 -10.95662109 46.01023437 -12.37890625 45.765625 C-15.18239237 44.94672295 -16.75777793 43.83106835 -19 42 C-20.64797236 41.28837557 -22.31165408 40.60968047 -24 40 C-24 39.34 -24 38.68 -24 38 C-22.783125 38.45375 -21.56625 38.9075 -20.3125 39.375 C-15.19539766 41.10242945 -10.06372894 41.85816948 -4.72265625 42.5703125 C-2 43 -2 43 0 44 C0 29.48 0 14.96 0 0 Z " fill="#D22E2B" transform="translate(108,128)"/>
<path d="M0 0 C7.33228928 -0.07601651 14.66447707 -0.12858578 21.99707031 -0.16479492 C24.49190061 -0.17988855 26.98670435 -0.20036548 29.48144531 -0.22631836 C33.06582186 -0.2626754 36.64984782 -0.27972078 40.234375 -0.29296875 C41.35116638 -0.30845261 42.46795776 -0.32393646 43.61859131 -0.33988953 C44.65936829 -0.34011612 45.70014526 -0.34034271 46.77246094 -0.34057617 C47.68735291 -0.34723801 48.60224487 -0.35389984 49.54486084 -0.36076355 C52 0 52 0 56 3 C31.745 2.505 31.745 2.505 7 2 C7 2.66 7 3.32 7 4 C6.01 4 5.02 4 4 4 C4 3.34 4 2.68 4 2 C2.68 2 1.36 2 0 2 C0 1.34 0 0.68 0 0 Z " fill="#E91E1D" transform="translate(127,107)"/>
<path d="M0 0 C3.51547883 0.29295657 4.72523271 0.69290714 7.125 3.375 C7.74375 4.24125 8.3625 5.1075 9 6 C10.83225945 7.9119229 12.74696424 9.69485045 14.6875 11.5 C17 14 17 14 17 17 C15.02 16.67 13.04 16.34 11 16 C11 15.01 11 14.02 11 13 C10.401875 12.9175 9.80375 12.835 9.1875 12.75 C6.37067727 11.78423221 5.52200868 10.51131433 4 8 C4 7.34 4 6.68 4 6 C1.03 5.505 1.03 5.505 -2 5 C-1.34 3.35 -0.68 1.7 0 0 Z " fill="#EE2726" transform="translate(52,145)"/>
<path d="M0 0 C1.64574566 -0.02688151 3.29161413 -0.04634123 4.9375 -0.0625 C5.85402344 -0.07410156 6.77054687 -0.08570313 7.71484375 -0.09765625 C10 0 10 0 11 1 C11.08737645 2.85369611 11.10698153 4.71067541 11.09765625 6.56640625 C11.09443359 7.69111328 11.09121094 8.81582031 11.08789062 9.97460938 C11.07951172 11.15861328 11.07113281 12.34261719 11.0625 13.5625 C11.05798828 14.75037109 11.05347656 15.93824219 11.04882812 17.16210938 C11.03699675 20.10812226 11.02051287 23.05403681 11 26 C12.97536745 25.65213292 12.97536745 25.65213292 15 25 C16.20270964 22.59458071 16.20316663 20.89633409 16.31640625 18.2109375 C16.35830078 17.26992187 16.40019531 16.32890625 16.44335938 15.359375 C16.48267578 14.37453125 16.52199219 13.3896875 16.5625 12.375 C16.60568359 11.38242188 16.64886719 10.38984375 16.69335938 9.3671875 C16.79961069 6.91160162 16.90164964 4.45591297 17 2 C17.33 2 17.66 2 18 2 C18.02886537 6.31248609 18.04675255 10.62494762 18.0625 14.9375 C18.07087891 16.16919922 18.07925781 17.40089844 18.08789062 18.66992188 C18.09272461 20.4246582 18.09272461 20.4246582 18.09765625 22.21484375 C18.10551147 23.84087524 18.10551147 23.84087524 18.11352539 25.49975586 C18 28 18 28 17 29 C14 29.125 14 29.125 11 29 C10 28 10 28 9.88647461 25.49975586 C9.89171143 24.41573486 9.89694824 23.33171387 9.90234375 22.21484375 C9.90556641 21.04501953 9.90878906 19.87519531 9.91210938 18.66992188 C9.92048828 17.43822266 9.92886719 16.20652344 9.9375 14.9375 C9.94201172 13.70193359 9.94652344 12.46636719 9.95117188 11.19335938 C9.96300392 8.12885883 9.97948827 5.06445279 10 2 C8.3603125 2.061875 8.3603125 2.061875 6.6875 2.125 C3 2 3 2 0 0 Z " fill="#C12B2D" transform="translate(98,179)"/>
<path d="M0 0 C-0.66666667 1.66666667 -1.33333333 3.33333333 -2 5 C-2.268125 5.9075 -2.53625 6.815 -2.8125 7.75 C-4 10 -4 10 -6.625 10.8125 C-7.800625 10.9053125 -7.800625 10.9053125 -9 11 C-9.33 11.99 -9.66 12.98 -10 14 C-11.32 13.67 -12.64 13.34 -14 13 C-13.67 14.65 -13.34 16.3 -13 18 C-16.75 19.125 -16.75 19.125 -19 18 C-19 17.34 -19 16.68 -19 16 C-18.34 16 -17.68 16 -17 16 C-16.34 14.68 -15.68 13.36 -15 12 C-14.34 12 -13.68 12 -13 12 C-13 11.01 -13 10.02 -13 9 C-10.6640625 6.73828125 -10.6640625 6.73828125 -7.625 4.3125 C-6.62726563 3.50425781 -5.62953125 2.69601563 -4.6015625 1.86328125 C-2 0 -2 0 0 0 Z " fill="#F5222D" transform="translate(174,143)"/>
<path d="M0 0 C8.25 0 16.5 0 25 0 C25.33 1.65 25.66 3.3 26 5 C25 6 25 6 22.49975586 6.11352539 C21.41573486 6.10828857 20.33171387 6.10305176 19.21484375 6.09765625 C18.04501953 6.09443359 16.87519531 6.09121094 15.66992188 6.08789062 C13.82237305 6.07532227 13.82237305 6.07532227 11.9375 6.0625 C10.08415039 6.05573242 10.08415039 6.05573242 8.19335938 6.04882812 C5.12885883 6.03699608 2.06445279 6.02051173 -1 6 C-0.34 5.01 0.32 4.02 1 3 C3.33837891 2.7512207 3.33837891 2.7512207 6.2265625 2.92578125 C7.2578125 2.98056641 8.2890625 3.03535156 9.3515625 3.09179688 C10.97191406 3.20104492 10.97191406 3.20104492 12.625 3.3125 C13.71296875 3.37373047 14.8009375 3.43496094 15.921875 3.49804688 C18.61569749 3.65164202 21.30786572 3.81953408 24 4 C24 3.01 24 2.02 24 1 C16.08 1 8.16 1 0 1 C0 0.67 0 0.34 0 0 Z " fill="#E42021" transform="translate(187,103)"/>
<path d="M0 0 C3.15140423 0.34069235 4.60781561 0.58076841 6.8125 2.9375 C8 5 8 5 8 7 C9.65 7 11.3 7 13 7 C12.67 8.32 12.34 9.64 12 11 C14.31 11.66 16.62 12.32 19 13 C18.67 14.32 18.34 15.64 18 17 C18.99 17 19.98 17 21 17 C21 17.66 21 18.32 21 19 C16.43478774 17.55392908 13.36827872 14.96932191 9.9375 11.75 C9.1630957 11.05197266 9.1630957 11.05197266 8.37304688 10.33984375 C4.95799637 7.18146583 2.44218774 3.95903816 0 0 Z " fill="#D63D3D" transform="translate(51,150)"/>
<path d="M0 0 C0 1.32 0 2.64 0 4 C-9.56588613 8.13816 -17.62359987 9.1688745 -28 9 C-25.46770676 6.46770676 -24.13977499 6.60724347 -20.625 6.1875 C-14.74310825 5.31374072 -9.7952278 3.47394858 -4.3984375 1.0234375 C-2 0 -2 0 0 0 Z " fill="#D73236" transform="translate(144,164)"/>
<path d="M0 0 C7.68727584 6.98843258 13.70907387 16.12722161 17 26 C16.67 26.66 16.34 27.32 16 28 C12.95691029 24.26529899 11.51110655 20.53331966 10 16 C9.34 16 8.68 16 8 16 C6.7109375 14.609375 6.7109375 14.609375 5.375 12.75 C4.92898437 12.14671875 4.48296875 11.5434375 4.0234375 10.921875 C3 9 3 9 3 5 C2.01 4.67 1.02 4.34 0 4 C0 2.68 0 1.36 0 0 Z " fill="#E13942" transform="translate(166,54)"/>
<path d="M0 0 C0.7425 0.763125 1.485 1.52625 2.25 2.3125 C5.61331136 5.59937247 8.7374307 8.02094997 13 10 C13 11.32 13 12.64 13 14 C6.57733944 12.79575114 2.39599279 9.84130115 -2 5 C-2 4.34 -2 3.68 -2 3 C-1.34 3 -0.68 3 0 3 C0 2.01 0 1.02 0 0 Z " fill="#AF3A3B" transform="translate(95,114)"/>
<path d="M0 0 C1.084021 0.00523682 2.16804199 0.01047363 3.28491211 0.01586914 C5.03964844 0.02070312 5.03964844 0.02070312 6.82983398 0.02563477 C8.67738281 0.03820312 8.67738281 0.03820312 10.56225586 0.05102539 C12.41560547 0.05779297 12.41560547 0.05779297 14.30639648 0.06469727 C17.37089703 0.07652931 20.43530307 0.09301366 23.49975586 0.11352539 C23.49975586 0.44352539 23.49975586 0.77352539 23.49975586 1.11352539 C11.12475586 1.60852539 11.12475586 1.60852539 -1.50024414 2.11352539 C-1.17024414 3.10352539 -0.84024414 4.09352539 -0.50024414 5.11352539 C1.96096427 6.3441296 3.75752452 6.31929769 6.50756836 6.42993164 C7.49370117 6.47182617 8.47983398 6.5137207 9.49584961 6.55688477 C11.0446582 6.61585937 11.0446582 6.61585937 12.62475586 6.67602539 C14.18516602 6.74080078 14.18516602 6.74080078 15.77709961 6.80688477 C18.35118114 6.91315419 20.92536094 7.01519122 23.49975586 7.11352539 C23.49975586 7.44352539 23.49975586 7.77352539 23.49975586 8.11352539 C19.18726976 8.14239076 14.87480824 8.16027794 10.56225586 8.17602539 C9.33055664 8.1844043 8.09885742 8.1927832 6.82983398 8.20141602 C5.66000977 8.20463867 4.49018555 8.20786133 3.28491211 8.21118164 C1.65888062 8.21903687 1.65888062 8.21903687 0 8.22705078 C-2.50024414 8.11352539 -2.50024414 8.11352539 -3.50024414 7.11352539 C-3.62524414 4.11352539 -3.62524414 4.11352539 -3.50024414 1.11352539 C-2.50024414 0.11352539 -2.50024414 0.11352539 0 0 Z " fill="#B12E33" transform="translate(13.500244140625,101.886474609375)"/>
<path d="M0 0 C0 0.99 0 1.98 0 3 C-2.87962834 3.95987611 -4.66627441 4.12153814 -7.6550293 4.11352539 C-8.59577805 4.11344986 -9.53652679 4.11337433 -10.50578308 4.11329651 C-11.51836685 4.10813522 -12.53095062 4.10297394 -13.57421875 4.09765625 C-14.61318802 4.0962413 -15.65215729 4.09482635 -16.72261047 4.09336853 C-20.04426948 4.08776656 -23.36586133 4.07521372 -26.6875 4.0625 C-28.93815007 4.05748525 -31.18880119 4.0529223 -33.43945312 4.04882812 C-38.95965837 4.03779649 -44.47982439 4.02105643 -50 4 C-50 3.67 -50 3.34 -50 3 C-36.14 3 -22.28 3 -8 3 C-8 2.34 -8 1.68 -8 1 C-5.07175348 0.02391783 -3.04386724 -0.08226668 0 0 Z " fill="#EE1A1B" transform="translate(96,104)"/>
<path d="M0 0 C7.92 0 15.84 0 24 0 C24 0.99 24 1.98 24 3 C20.75007554 3.05819424 17.50028565 3.09366116 14.25 3.125 C13.32960937 3.14175781 12.40921875 3.15851563 11.4609375 3.17578125 C10.12675781 3.18544922 10.12675781 3.18544922 8.765625 3.1953125 C7.54020996 3.21102295 7.54020996 3.21102295 6.29003906 3.22705078 C3.78112482 2.97829916 2.16604375 2.25700129 0 1 C0 0.67 0 0.34 0 0 Z " fill="#E30C0A" transform="translate(187,104)"/>
<path d="M0 0 C1.32 0 2.64 0 4 0 C4.33 0.99 4.66 1.98 5 3 C3.68 3.33 2.36 3.66 1 4 C0.98018066 4.71655762 0.96036133 5.43311523 0.93994141 6.17138672 C0.84490481 9.4063063 0.73513981 12.64056094 0.625 15.875 C0.5940625 17.00292969 0.563125 18.13085938 0.53125 19.29296875 C0.49257812 20.36933594 0.45390625 21.44570312 0.4140625 22.5546875 C0.36693115 24.04718018 0.36693115 24.04718018 0.31884766 25.56982422 C0 28 0 28 -2 30 C-2 22.08 -2 14.16 -2 6 C-1.34 6 -0.68 6 0 6 C0 4.02 0 2.04 0 0 Z " fill="#F72423" transform="translate(115,174)"/>
<path d="M0 0 C0.66 0 1.32 0 2 0 C1.67 0.99 1.34 1.98 1 3 C0.34 2.34 -0.32 1.68 -1 1 C-0.67 0.67 -0.34 0.34 0 0 Z M5 2 C5.33 2.66 5.66 3.32 6 4 C5.34 4 4.68 4 4 4 C4 4.99 4 5.98 4 7 C1.91796875 8.97265625 1.91796875 8.97265625 -0.8125 11.0625 C-2.15248047 12.10083984 -2.15248047 12.10083984 -3.51953125 13.16015625 C-5.31109091 14.48901389 -7.14403378 15.76268919 -9 17 C-9 15.68 -9 14.36 -9 13 C-8.34 13 -7.68 13 -7 13 C-6.731875 12.401875 -6.46375 11.80375 -6.1875 11.1875 C-5.00150961 9.00278087 -3.77943518 7.70529205 -2 6 C-1.34 5.01 -0.68 4.02 0 3 C2.625 2.3125 2.625 2.3125 5 2 Z " fill="#DB3135" transform="translate(71,45)"/>
<path d="M0 0 C2.97 0 5.94 0 9 0 C9.33 0.66 9.66 1.32 10 2 C10.99 2.33 11.98 2.66 13 3 C13 4.32 13 5.64 13 7 C9.7 6.67 6.4 6.34 3 6 C3 5.34 3 4.68 3 4 C2.01 4 1.02 4 0 4 C0 2.68 0 1.36 0 0 Z " fill="#F7252F" transform="translate(126,35)"/>
<path d="M0 0 C0.33 0 0.66 0 1 0 C1.02505615 1.30146973 1.0501123 2.60293945 1.07592773 3.94384766 C1.1703047 8.78573971 1.27045085 13.62749842 1.37231445 18.46923828 C1.41554894 20.56230544 1.45723185 22.65540526 1.49731445 24.74853516 C1.55529601 27.76214426 1.61890942 30.77559071 1.68359375 33.7890625 C1.70030624 34.72054108 1.71701874 35.65201965 1.73423767 36.61172485 C1.46194806 44.98293936 1.46194806 44.98293936 5 52 C3.68 51.67 2.36 51.34 1 51 C0.896875 50.360625 0.79375 49.72125 0.6875 49.0625 C0.460625 48.381875 0.23375 47.70125 0 47 C-0.99 46.67 -1.98 46.34 -3 46 C-2.01 45.505 -2.01 45.505 -1 45 C-0.67 30.15 -0.34 15.3 0 0 Z " fill="#C02D2C" transform="translate(108,40)"/>
<path d="M0 0 C0 3.99813433 -1.86594251 6.41904263 -3.9375 9.6875 C-4.31068359 10.29400391 -4.68386719 10.90050781 -5.06835938 11.52539062 C-6.01266267 13.03797735 -7.00262897 14.52186661 -8 16 C-8.33 16 -8.66 16 -9 16 C-8.67 12.7 -8.34 9.4 -8 6 C-8.99 6.99 -9.98 7.98 -11 9 C-11.33 8.34 -11.66 7.68 -12 7 C-11.67 6.34 -11.34 5.68 -11 5 C-10.34 5 -9.68 5 -9 5 C-9 4.34 -9 3.68 -9 3 C-8.01 2.67 -7.02 2.34 -6 2 C-5.67 2.66 -5.34 3.32 -5 4 C-4.34 4 -3.68 4 -3 4 C-3 3.01 -3 2.02 -3 1 C-2.01 0.67 -1.02 0.34 0 0 Z " fill="#E13139" transform="translate(60,63)"/>
<path d="M0 0 C0.66 0 1.32 0 2 0 C1.625 2.4375 1.625 2.4375 1 5 C-1.3520006 6.1760003 -2.73734401 6.12084541 -5.35791016 6.11352539 C-6.70908432 6.11341209 -6.70908432 6.11341209 -8.08755493 6.11329651 C-9.06155243 6.10813522 -10.03554993 6.10297394 -11.0390625 6.09765625 C-12.03505463 6.0962413 -13.03104675 6.09482635 -14.05722046 6.09336853 C-17.24651053 6.08775936 -20.43573106 6.0752053 -23.625 6.0625 C-25.78385315 6.05748618 -27.94270741 6.05292307 -30.1015625 6.04882812 C-35.4010655 6.03778695 -40.70052778 6.02103988 -46 6 C-46 5.67 -46 5.34 -46 5 C-31.81 5 -17.62 5 -3 5 C-3 4.34 -3 3.68 -3 3 C-2.01 3 -1.02 3 0 3 C0 2.01 0 1.02 0 0 Z " fill="#BB2E2E" transform="translate(93,97)"/>
<path d="M0 0 C0.99 0.33 1.98 0.66 3 1 C4.45706917 1.11349848 5.91844959 1.17601475 7.37963867 1.20532227 C8.26032516 1.22526749 9.14101166 1.24521271 10.04838562 1.26576233 C10.99534805 1.28247482 11.94231049 1.29918732 12.91796875 1.31640625 C13.89034988 1.33718735 14.86273102 1.35796844 15.86457825 1.37937927 C18.97214665 1.44478748 22.07979985 1.50371929 25.1875 1.5625 C27.29362858 1.60569351 29.39974856 1.64930807 31.50585938 1.69335938 C36.67048591 1.80045999 41.83519778 1.90175219 47 2 C47 2.33 47 2.66 47 3 C30.17 3 13.34 3 -4 3 C-2.68 2.01 -1.36 1.02 0 0 Z " fill="#E21F1D" transform="translate(131,101)"/>
<path d="M0 0 C3.3 0 6.6 0 10 0 C10 0.66 10 1.32 10 2 C12.97 2.99 15.94 3.98 19 5 C19 5.66 19 6.32 19 7 C11.84937514 6.59524765 6.37295696 4.17476348 0 1 C0 0.67 0 0.34 0 0 Z " fill="#D53132" transform="translate(77,172)"/>
<path d="M0 0 C4.875 4.75 4.875 4.75 6 7 C5.5625 9.125 5.5625 9.125 5 11 C5.66 11.33 6.32 11.66 7 12 C7 12.66 7 13.32 7 14 C7.47033183 15.5509752 7.9743608 17.09188567 8.5 18.625 C8.7784375 19.44226563 9.056875 20.25953125 9.34375 21.1015625 C9.5603125 21.72804687 9.776875 22.35453125 10 23 C9.34 23 8.68 23 8 23 C7.32880451 21.5437455 6.66318193 20.08492133 6 18.625 C5.62875 17.81289062 5.2575 17.00078125 4.875 16.1640625 C4 14 4 14 4 12 C3.34 12 2.68 12 2 12 C0.70756464 7.8803623 -0.26252625 4.33168317 0 0 Z " fill="#EA2E2C" transform="translate(38,118)"/>
<path d="M0 0 C0.33 0 0.66 0 1 0 C1.20311079 5.24025843 0.53238422 9.58101714 -0.875 14.625 C-1.22304687 15.89601563 -1.57109375 17.16703125 -1.9296875 18.4765625 C-2.81867091 21.40306994 -3.80421236 24.18828312 -5 27 C-5.33 27 -5.66 27 -6 27 C-5.44314299 22.17390594 -4.79131227 17.36577457 -4.0625 12.5625 C-3.90910156 11.53253906 -3.75570312 10.50257812 -3.59765625 9.44140625 C-3.40042969 8.63574219 -3.20320312 7.83007812 -3 7 C-2.34 6.67 -1.68 6.34 -1 6 C-0.34227572 2.97065509 -0.34227572 2.97065509 0 0 Z " fill="#CB3739" transform="translate(186,110)"/>
<path d="M0 0 C0.33 0.99 0.66 1.98 1 3 C0 5 -1 7 -2 9 C-1.01 9 -0.02 9 1 9 C1.33 8.34 1.66 7.68 2 7 C1.67 8.32 1.34 9.64 1 11 C-0.32 11 -1.64 11 -3 11 C-3 11.99 -3 12.98 -3 14 C-3.99 14.33 -4.98 14.66 -6 15 C-6.66 13.68 -7.32 12.36 -8 11 C-7.54625 10.4225 -7.0925 9.845 -6.625 9.25 C-5.15886484 7.2199667 -4.05142216 5.26460157 -3 3 C-2.34 3 -1.68 3 -1 3 C-0.67 2.01 -0.34 1.02 0 0 Z " fill="#EB2B31" transform="translate(60,53)"/>
<path d="M0 0 C0.33 0 0.66 0 1 0 C1 6.27 1 12.54 1 19 C0.34 19 -0.32 19 -1 19 C-2.5171199 15.96576019 -2.18439257 12.82495206 -2.1875 9.5 C-2.19974609 8.81035156 -2.21199219 8.12070313 -2.22460938 7.41015625 C-2.22988695 5.60522506 -2.12184458 3.80082158 -2 2 C-1.34 1.34 -0.68 0.68 0 0 Z " fill="#F6050B" transform="translate(112,183)"/>
<path d="M0 0 C6.77108423 3.00937077 12.60795336 6.88123448 18 12 C18.33 12.99 18.66 13.98 19 15 C14.125 13.25 14.125 13.25 13 11 C12.01 10.67 11.02 10.34 10 10 C10 9.34 10 8.68 10 8 C8.35 7.67 6.7 7.34 5 7 C5 6.01 5 5.02 5 4 C2.525 3.01 2.525 3.01 0 2 C0 1.34 0 0.68 0 0 Z " fill="#D3413F" transform="translate(146,39)"/>
<path d="M0 0 C0.66 0 1.32 0 2 0 C1.58427734 1.62808594 1.58427734 1.62808594 1.16015625 3.2890625 C0.7941437 4.73434281 0.4282654 6.17965712 0.0625 7.625 C-0.11990234 8.33785156 -0.30230469 9.05070312 -0.49023438 9.78515625 C-1.51316799 13.83969313 -2.37957367 17.85947059 -3 22 C-3.66 21.67 -4.32 21.34 -5 21 C-5.02698189 19.37509046 -5.04638757 17.75005367 -5.0625 16.125 C-5.07410156 15.22007813 -5.08570313 14.31515625 -5.09765625 13.3828125 C-5 11 -5 11 -4 9 C-3.34 9 -2.68 9 -2 9 C-1.7834375 7.0509375 -1.7834375 7.0509375 -1.5625 5.0625 C-1.125 1.125 -1.125 1.125 0 0 Z " fill="#E03A3D" transform="translate(49,80)"/>
<path d="M0 0 C-3.98990809 4.33685662 -10.04280671 7.64957687 -16 8 C-16.66 7.34 -17.32 6.68 -18 6 C-5.33823529 -0.48529412 -5.33823529 -0.48529412 0 0 Z " fill="#D52E38" transform="translate(152,169)"/>
<path d="M0 0 C0.33 0 0.66 0 1 0 C1.25394531 1.19496094 1.50789063 2.38992187 1.76953125 3.62109375 C3.48137172 11.56463419 5.17171202 19.36362247 8 27 C6 26 6 26 5 23 C4.34 22.67 3.68 22.34 3 22 C2.40234375 19.75 2.40234375 19.75 1.9375 17 C1.5954649 13.69940294 1.5954649 13.69940294 0 11 C-0.07226502 9.14712498 -0.0838122 7.29166122 -0.0625 5.4375 C-0.05347656 4.42558594 -0.04445312 3.41367188 -0.03515625 2.37109375 C-0.02355469 1.58863281 -0.01195312 0.80617188 0 0 Z " fill="#CD484B" transform="translate(45,110)"/>
<path d="M0 0 C0.66 0.33 1.32 0.66 2 1 C1.98839844 1.78246094 1.97679687 2.56492187 1.96484375 3.37109375 C1.95582031 4.38300781 1.94679687 5.39492187 1.9375 6.4375 C1.92589844 7.44683594 1.91429687 8.45617187 1.90234375 9.49609375 C1.71387324 11.94021067 1.71387324 11.94021067 3 13 C3.23287008 14.68183948 3.41264166 16.3712416 3.5625 18.0625 C3.64628906 18.98160156 3.73007812 19.90070313 3.81640625 20.84765625 C3.87699219 21.55792969 3.93757813 22.26820313 4 23 C4.99 23.33 5.98 23.66 7 24 C6.67 24.99 6.34 25.98 6 27 C1.94627679 23.89214554 1.31725033 20.96723618 0.4375 16.18359375 C-0.07189 13.64119186 -1.01519262 11.39167507 -2 9 C-2 8.01 -2 7.02 -2 6 C-1.34 6 -0.68 6 0 6 C0 4.02 0 2.04 0 0 Z " fill="#EE2E32" transform="translate(44,109)"/>
<path d="M0 0 C0.93457031 0.00322266 1.86914062 0.00644531 2.83203125 0.00976562 C3.80011719 0.01814453 4.76820312 0.02652344 5.765625 0.03515625 C6.74917969 0.03966797 7.73273437 0.04417969 8.74609375 0.04882812 C11.16933291 0.06059142 13.59244773 0.07702941 16.015625 0.09765625 C11.92950765 2.37474422 8.10796081 2.50032113 3.515625 2.66015625 C-2.7996753 2.89177775 -2.7996753 2.89177775 -8.984375 4.09765625 C-8.984375 3.10765625 -8.984375 2.11765625 -8.984375 1.09765625 C-5.9161112 0.20015803 -3.19167524 -0.01946143 0 0 Z " fill="#D61213" transform="translate(20.984375,102.90234375)"/>
<path d="M0 0 C3.20802508 1.60401254 3.63001669 4.80337227 5 8 C5.66 8.33 6.32 8.66 7 9 C7.4140625 11.06640625 7.4140625 11.06640625 7.625 13.5625 C7.69976562 14.38878906 7.77453125 15.21507813 7.8515625 16.06640625 C7.90054688 16.70449219 7.94953125 17.34257813 8 18 C7.34 17.67 6.68 17.34 6 17 C6 15.68 6 14.36 6 13 C3.525 12.01 3.525 12.01 1 11 C0.67 7.37 0.34 3.74 0 0 Z " fill="#E23940" transform="translate(177,73)"/>
<path d="M0 0 C0.99 0 1.98 0 3 0 C3 0.66 3 1.32 3 2 C2.34 2 1.68 2 1 2 C0.67 11.9 0.34 21.8 0 32 C-0.66 32 -1.32 32 -2 32 C-1.88202982 27.60324012 -1.75780274 23.20671601 -1.62768555 18.81030273 C-1.58428187 17.31360731 -1.54261087 15.81686061 -1.50268555 14.32006836 C-1.44511384 12.17285688 -1.38138284 10.02590479 -1.31640625 7.87890625 C-1.27974854 6.5854126 -1.24309082 5.29191895 -1.20532227 3.95922852 C-1 1 -1 1 0 0 Z " fill="#EB191B" transform="translate(110,6)"/>
<path d="M0 0 C8.25 0 16.5 0 25 0 C25.33 1.65 25.66 3.3 26 5 C25 6 25 6 21.4375 6.0625 C20.303125 6.041875 19.16875 6.02125 18 6 C21 4 21 4 24 4 C24 3.01 24 2.02 24 1 C16.08 1 8.16 1 0 1 C0 0.67 0 0.34 0 0 Z " fill="#DA1F1D" transform="translate(187,103)"/>
<path d="M0 0 C0.66 0.33 1.32 0.66 2 1 C1.71788123 2.6266848 1.42397625 4.25132896 1.125 5.875 C0.96257813 6.77992187 0.80015625 7.68484375 0.6328125 8.6171875 C0 11 0 11 -2 13 C-2.99 12.67 -3.98 12.34 -5 12 C-4.34 9.03 -3.68 6.06 -3 3 C-2.01 3 -1.02 3 0 3 C0 2.01 0 1.02 0 0 Z " fill="#F72722" transform="translate(44,85)"/>
<path d="M0 0 C0.763125 0.20625 1.52625 0.4125 2.3125 0.625 C-0.26534846 3.27252004 -2.60398098 5.56932065 -5.6875 7.625 C-6.6775 7.295 -7.6675 6.965 -8.6875 6.625 C-4.66647727 -0.65113636 -4.66647727 -0.65113636 0 0 Z " fill="#F52525" transform="translate(79.6875,41.375)"/>
<path d="M0 0 C0.33 0 0.66 0 1 0 C1.33 7.26 1.66 14.52 2 22 C2.66 22 3.32 22 4 22 C4 22.99 4 23.98 4 25 C2.68 25 1.36 25 0 25 C0 16.75 0 8.5 0 0 Z " fill="#E81317" transform="translate(109,180)"/>
<path d="M0 0 C1.8253125 0.680625 1.8253125 0.680625 3.6875 1.375 C9.65752708 3.38726152 15.77257489 4.18186842 22 5 C22 5.33 22 5.66 22 6 C17.545 6.495 17.545 6.495 13 7 C13 6.34 13 5.68 13 5 C11.453125 5.0928125 11.453125 5.0928125 9.875 5.1875 C5.76531027 4.98864405 3.51117504 4.05532197 0 2 C0 1.34 0 0.68 0 0 Z " fill="#C73C3E" transform="translate(84,166)"/>
<path d="M0 0 C0.33 0 0.66 0 1 0 C1.24222254 4.11778316 0.36905536 7.13443193 -1 11 C-1.36106097 12.66088045 -1.70462173 14.32618981 -2 16 C-2.99 16 -3.98 16 -5 16 C-3.90301833 10.30860098 -2.45946923 5.25432063 0 0 Z " fill="#D43C3C" transform="translate(44,72)"/>
<path d="M0 0 C2.70589034 0.92581703 5.34296856 1.93718742 8 3 C8 3.33 8 3.66 8 4 C4.7 3.67 1.4 3.34 -2 3 C-2.33 2.01 -2.66 1.02 -3 0 C-6.3 0 -9.6 0 -13 0 C-7.80108792 -2.59945604 -5.35679679 -1.59917425 0 0 Z " fill="#CD3A43" transform="translate(138,35)"/>
<path d="M0 0 C1.76337678 2.64506516 2.6560851 4.59213967 3.625 7.5625 C3.88539063 8.34753906 4.14578125 9.13257812 4.4140625 9.94140625 C5 12 5 12 5 14 C3.68 14.33 2.36 14.66 1 15 C0.67 10.05 0.34 5.1 0 0 Z " fill="#D2403D" transform="translate(176,88)"/>
<path d="M0 0 C0.33 0 0.66 0 1 0 C1.05814085 3.58326501 1.09364357 7.16640838 1.125 10.75 C1.14175781 11.76578125 1.15851563 12.7815625 1.17578125 13.828125 C1.18222656 14.8078125 1.18867187 15.7875 1.1953125 16.796875 C1.20578613 17.69760742 1.21625977 18.59833984 1.22705078 19.52636719 C0.98721676 22.13926856 0.32312064 23.75664666 -1 26 C-1.99 25.67 -2.98 25.34 -4 25 C-3.2733313 24.1642041 -3.2733313 24.1642041 -2.53198242 23.31152344 C-0.76360735 20.64332023 -0.58486983 19.18373054 -0.48828125 16.015625 C-0.43510742 14.61376953 -0.43510742 14.61376953 -0.38085938 13.18359375 C-0.35830078 12.21550781 -0.33574219 11.24742187 -0.3125 10.25 C-0.27833984 9.26644531 -0.24417969 8.28289062 -0.20898438 7.26953125 C-0.12664727 4.84646801 -0.05745162 2.42376002 0 0 Z " fill="#D03232" transform="translate(115,181)"/>
<path d="M0 0 C3.96 0 7.92 0 12 0 C12 1.65 12 3.3 12 5 C10.18504338 4.55149342 8.37306866 4.09090429 6.5625 3.625 C5.55316406 3.36976563 4.54382813 3.11453125 3.50390625 2.8515625 C1 2 1 2 0 0 Z " fill="#F9221D" transform="translate(96,174)"/>
<path d="M0 0 C1.65 0 3.3 0 5 0 C3.68022334 2.63955332 2.43718443 2.8610609 -0.25 4 C-1.05824219 4.34546875 -1.86648437 4.6909375 -2.69921875 5.046875 C-5.12512096 6.05183279 -7.5511641 7.05206352 -10 8 C-10 7.34 -10 6.68 -10 6 C-9.34 6 -8.68 6 -8 6 C-8 5.01 -8 4.02 -8 3 C-5.36 2.67 -2.72 2.34 0 2 C0 1.34 0 0.68 0 0 Z " fill="#C83837" transform="translate(85,43)"/>
<path d="M0 0 C0 1.32 0 2.64 0 4 C-2.64 4.66 -5.28 5.32 -8 6 C-7.8125 3.625 -7.8125 3.625 -7 1 C-2.77108434 -1.38554217 -2.77108434 -1.38554217 0 0 Z " fill="#C13A44" transform="translate(108,85)"/>
<path d="M0 0 C0 0.66 0 1.32 0 2 C-3.77222089 3.75163456 -6.666639 4.22490027 -10.8125 4.125 C-12.27623047 4.09792969 -12.27623047 4.09792969 -13.76953125 4.0703125 C-14.50558594 4.04710937 -15.24164063 4.02390625 -16 4 C-13.39725921 1.39725921 -11.60706046 1.42126156 -8 0.875 C-6.9275 0.70742187 -5.855 0.53984375 -4.75 0.3671875 C-2 0 -2 0 0 0 Z " fill="#C23B39" transform="translate(132,169)"/>
<path d="M0 0 C2.31 0 4.62 0 7 0 C7.33 0.66 7.66 1.32 8 2 C7.67 2.99 7.34 3.98 7 5 C7.99 5 8.98 5 10 5 C10 5.66 10 6.32 10 7 C5.56541027 5.6062718 3.12621626 3.39417765 0 0 Z " fill="#D13733" transform="translate(62,162)"/>
<path d="M0 0 C0.33 0.66 0.66 1.32 1 2 C0.67 2.99 0.34 3.98 0 5 C-2.0625 5.6875 -2.0625 5.6875 -4 6 C-4 6.66 -4 7.32 -4 8 C-5.98 8 -7.96 8 -10 8 C-6.66666667 5.33333333 -3.33333333 2.66666667 0 0 Z " fill="#C73D3F" transform="translate(154,156)"/>
<path d="M0 0 C0.69921875 1.74609375 0.69921875 1.74609375 1 4 C-0.29296875 6.03515625 -0.29296875 6.03515625 -2.1875 8.0625 C-2.79980469 8.73410156 -3.41210938 9.40570313 -4.04296875 10.09765625 C-5.92617693 11.92823985 -7.86258829 13.47869366 -10 15 C-8.34540386 11.08913641 -5.70698566 8.23517798 -3 5 C-1.96344932 3.35581617 -0.94815429 1.69669715 0 0 Z " fill="#C3403D" transform="translate(169,138)"/>
<path d="M0 0 C1.546875 1.1446875 1.546875 1.1446875 3.125 2.3125 C6.27417261 4.57015531 9.47712912 6.36745008 13 8 C13 8.66 13 9.32 13 10 C12.34 10 11.68 10 11 10 C11 9.34 11 8.68 11 8 C10.21625 7.855625 9.4325 7.71125 8.625 7.5625 C6 7 6 7 4 6 C4 5.34 4 4.68 4 4 C2.68 3.67 1.36 3.34 0 3 C0 2.01 0 1.02 0 0 Z " fill="#D53F47" transform="translate(70,157)"/>
<path d="M0 0 C0 4.0333534 -1.60879918 5.83517538 -4 9 C-4.66 9 -5.32 9 -6 9 C-6.33 9.99 -6.66 10.98 -7 12 C-7.66 11.67 -8.32 11.34 -9 11 C-8.34 9.68 -7.68 8.36 -7 7 C-6.01 7 -5.02 7 -4 7 C-3.8453125 5.824375 -3.8453125 5.824375 -3.6875 4.625 C-3 2 -3 2 0 0 Z " fill="#CB3340" transform="translate(174,146)"/>
<path d="M0 0 C2.85818883 2.47989913 4.19893393 5.13646878 5.75 8.5625 C6.19859375 9.53316406 6.6471875 10.50382812 7.109375 11.50390625 C7.40328125 12.32761719 7.6971875 13.15132812 8 14 C7.67 14.66 7.34 15.32 7 16 C3.04824185 11.15011499 1.64086844 5.97744933 0 0 Z " fill="#CA464B" transform="translate(175,66)"/>
<path d="M0 0 C4.455 0.99 4.455 0.99 9 2 C8.34 3.32 7.68 4.64 7 6 C6.01 6 5.02 6 4 6 C4 5.34 4 4.68 4 4 C3.01 4 2.02 4 1 4 C0.67 2.68 0.34 1.36 0 0 Z " fill="#F62925" transform="translate(142,41)"/>
<path d="M0 0 C2.33965571 2.22723982 4.27099166 4.58956647 6.1875 7.1875 C6.71730469 7.90292969 7.24710938 8.61835938 7.79296875 9.35546875 C8.39044922 10.16951172 8.39044922 10.16951172 9 11 C8.67 11.66 8.34 12.32 8 13 C7.1028125 11.7934375 7.1028125 11.7934375 6.1875 10.5625 C4.19052724 7.77672016 4.19052724 7.77672016 1 7 C0.67 4.69 0.34 2.38 0 0 Z " fill="#CB444C" transform="translate(53,137)"/>
<path d="M0 0 C-0.66 1.32 -1.32 2.64 -2 4 C-3.98 4 -5.96 4 -8 4 C-8 3.01 -8 2.02 -8 1 C-3.375 -1.125 -3.375 -1.125 0 0 Z " fill="#EE2915" transform="translate(130,173)"/>
<path d="M0 0 C1.4540625 0.0309375 1.4540625 0.0309375 2.9375 0.0625 C3.2675 1.7125 3.5975 3.3625 3.9375 5.0625 C2.9475 4.4025 1.9575 3.7425 0.9375 3.0625 C-0.0525 3.0625 -1.0425 3.0625 -2.0625 3.0625 C-2.7225 4.3825 -3.3825 5.7025 -4.0625 7.0625 C-4.10504356 5.06295254 -4.10330783 3.06208364 -4.0625 1.0625 C-3.0625 0.0625 -3.0625 0.0625 0 0 Z " fill="#B53E44" transform="translate(112.0625,3.9375)"/>
<path d="M0 0 C1.32 0 2.64 0 4 0 C4 1.98 4 3.96 4 6 C3.01 6.33 2.02 6.66 1 7 C1 5.68 1 4.36 1 3 C0.34 2.67 -0.32 2.34 -1 2 C-0.67 1.34 -0.34 0.68 0 0 Z " fill="#E01413" transform="translate(109,121)"/>
<path d="M0 0 C1.65 0.33 3.3 0.66 5 1 C5 2.32 5 3.64 5 5 C2.69 4.34 0.38 3.68 -2 3 C-1.34 2.67 -0.68 2.34 0 2 C0 1.34 0 0.68 0 0 Z " fill="#B23531" transform="translate(103,123)"/>
<path d="M0 0 C2.31 0 4.62 0 7 0 C7.33 1.65 7.66 3.3 8 5 C7.01 4.67 6.02 4.34 5 4 C5 3.34 5 2.68 5 2 C3.68 2 2.36 2 1 2 C0.67 2.66 0.34 3.32 0 4 C0 2.68 0 1.36 0 0 Z " fill="#B84642" transform="translate(108,119)"/>
<path d="M0 0 C0 0.99 0 1.98 0 3 C-5.75 4.125 -5.75 4.125 -8 3 C-8 2.34 -8 1.68 -8 1 C-5.07175348 0.02391783 -3.04386724 -0.08226668 0 0 Z " fill="#ED0815" transform="translate(96,104)"/>
<path d="M0 0 C1.5 1.1875 1.5 1.1875 3 3 C3.1875 5.6875 3.1875 5.6875 3 8 C1.35 7.01 -0.3 6.02 -2 5 C-1.34 3.35 -0.68 1.7 0 0 Z " fill="#F82632" transform="translate(41,116)"/>
<path d="M0 0 C1.32 0.66 2.64 1.32 4 2 C3.25 6.75 3.25 6.75 1 9 C1 8.01 1 7.02 1 6 C0.34 6 -0.32 6 -1 6 C-0.67 4.02 -0.34 2.04 0 0 Z " fill="#B2353E" transform="translate(129,110)"/>
<path d="M0 0 C3.63 0 7.26 0 11 0 C9.02 0.99 9.02 0.99 7 2 C7 2.66 7 3.32 7 4 C6.01 4 5.02 4 4 4 C4 3.34 4 2.68 4 2 C2.68 2 1.36 2 0 2 C0 1.34 0 0.68 0 0 Z " fill="#E52323" transform="translate(127,107)"/>
<path d="M0 0 C2.475 0.495 2.475 0.495 5 1 C5.33 3.97 5.66 6.94 6 10 C3.47650757 6.87567603 1.72743854 3.61939504 0 0 Z " fill="#CC4145" transform="translate(166,68)"/>
<path d="M0 0 C0.33 0.99 0.66 1.98 1 3 C-3.455 6.96 -3.455 6.96 -8 11 C-8 8 -8 8 -6.25 5.95703125 C-5.5075 5.24933594 -4.765 4.54164062 -4 3.8125 C-2.88625 2.73935547 -2.88625 2.73935547 -1.75 1.64453125 C-1.1725 1.10183594 -0.595 0.55914062 0 0 Z " fill="#C54347" transform="translate(62,49)"/>
<path d="M0 0 C2.31 0.33 4.62 0.66 7 1 C7.33 1.99 7.66 2.98 8 4 C8.66 4.66 9.32 5.32 10 6 C5.16743695 5.58578031 3.17320782 3.53586014 0 0 Z " fill="#D53B3A" transform="translate(148,50)"/>
<path d="M0 0 C1.875 0.1875 1.875 0.1875 4 1 C5.25 3.5625 5.25 3.5625 6 6 C5.01 6.33 4.02 6.66 3 7 C3 6.34 3 5.68 3 5 C2.01 5 1.02 5 0 5 C0 3.35 0 1.7 0 0 Z " fill="#EF2925" transform="translate(69,162)"/>
<path d="M0 0 C0.66 0 1.32 0 2 0 C1.8125 2.375 1.8125 2.375 1 5 C-1.5625 6.3125 -1.5625 6.3125 -4 7 C-4.33 5.35 -4.66 3.7 -5 2 C-3.68 2 -2.36 2 -1 2 C-0.67 1.34 -0.34 0.68 0 0 Z " fill="#E32932" transform="translate(165,154)"/>
<path d="M0 0 C0.33 0 0.66 0 1 0 C1 4.29 1 8.58 1 13 C0.01 13.33 -0.98 13.66 -2 14 C-1.34 9.38 -0.68 4.76 0 0 Z " fill="#C43940" transform="translate(177,112)"/>
<path d="M0 0 C1.65 1.65 3.3 3.3 5 5 C3.02 5.99 3.02 5.99 1 7 C0.01 6.34 -0.98 5.68 -2 5 C-2 4.34 -2 3.68 -2 3 C-1.34 3 -0.68 3 0 3 C0 2.01 0 1.02 0 0 Z " fill="#A73844" transform="translate(95,114)"/>
<path d="M0 0 C2.64 0 5.28 0 8 0 C8 0.99 8 1.98 8 3 C5.69 3 3.38 3 1 3 C0.67 2.01 0.34 1.02 0 0 Z " fill="#D60F11" transform="translate(203,104)"/>
<path d="M0 0 C1.98 0 3.96 0 6 0 C6 0.99 6 1.98 6 3 C6.66 3 7.32 3 8 3 C8 3.66 8 4.32 8 5 C2.25 3.125 2.25 3.125 0 2 C0 1.34 0 0.68 0 0 Z " fill="#D73634" transform="translate(140,45)"/>
<path d="M0 0 C1.60226148 4.00565371 0.47694566 7.08609399 -1 11 C-1.99 11.33 -2.98 11.66 -4 12 C-2.66666667 8 -1.33333333 4 0 0 Z " fill="#CB3936" transform="translate(174,126)"/>
<path d="M0 0 C1.32 0.33 2.64 0.66 4 1 C3.67 2.65 3.34 4.3 3 6 C0.69 6 -1.62 6 -4 6 C-1 4 -1 4 2 4 C2 3.01 2 2.02 2 1 C1.34 0.67 0.68 0.34 0 0 Z " fill="#C41C29" transform="translate(209,103)"/>
<path d="M0 0 C0.66 0 1.32 0 2 0 C1.01 3.96 0.02 7.92 -1 12 C-1.33 12 -1.66 12 -2 12 C-2.28571429 3.42857143 -2.28571429 3.42857143 0 0 Z " fill="#CC4447" transform="translate(49,80)"/>
<path d="M0 0 C0.33 0.66 0.66 1.32 1 2 C0.22265625 3.9453125 0.22265625 3.9453125 -0.9375 6.125 C-1.31777344 6.84945312 -1.69804688 7.57390625 -2.08984375 8.3203125 C-2.39019531 8.87460938 -2.69054688 9.42890625 -3 10 C-3.66 9.67 -4.32 9.34 -5 9 C-3.7508258 5.54074837 -2.32472205 2.85306797 0 0 Z " fill="#C94045" transform="translate(50,63)"/>
<path d="M0 0 C0 3.99904969 -1.72586967 5.80200422 -4 9 C-4.66 7.68 -5.32 6.36 -6 5 C-5.01 4.67 -4.02 4.34 -3 4 C-3 3.01 -3 2.02 -3 1 C-2.01 0.67 -1.02 0.34 0 0 Z " fill="#CC3541" transform="translate(60,63)"/>
<path d="M0 0 C0.99 0 1.98 0 3 0 C3 1.98 3 3.96 3 6 C1.68 6 0.36 6 -1 6 C-0.67 4.02 -0.34 2.04 0 0 Z " fill="#E00F07" transform="translate(110,166)"/>
<path d="M0 0 C2.31 1.98 4.62 3.96 7 6 C5.68 6.33 4.36 6.66 3 7 C2.67 6.01 2.34 5.02 2 4 C1.34 3.67 0.68 3.34 0 3 C0 2.01 0 1.02 0 0 Z " fill="#D83E3F" transform="translate(62,150)"/>
<path d="M0 0 C2.0625 1.5 2.0625 1.5 4 4 C4.05928384 6.82406647 3.55954815 9.20225927 3 12 C0.60926555 8.17482487 0.44033448 4.40334476 0 0 Z " fill="#CA3B36" transform="translate(38,118)"/>
<path d="M0 0 C0.12375 0.94875 0.2475 1.8975 0.375 2.875 C0.71687177 6.08667191 0.71687177 6.08667191 3 8 C1.68 7.67 0.36 7.34 -1 7 C-1.103125 6.360625 -1.20625 5.72125 -1.3125 5.0625 C-1.539375 4.381875 -1.76625 3.70125 -2 3 C-2.99 2.67 -3.98 2.34 -5 2 C-2 0 -2 0 0 0 Z " fill="#E53235" transform="translate(110,84)"/>
<path d="M0 0 C-0.75 5.75 -0.75 5.75 -3 8 C-3.66 6.35 -4.32 4.7 -5 3 C-2.25 0 -2.25 0 0 0 Z " fill="#F42424" transform="translate(52,69)"/>
<path d="M0 0 C-1.0625 1.5 -1.0625 1.5 -3 3 C-6.6875 3.1875 -6.6875 3.1875 -10 3 C-3.66666667 -1.22222222 -3.66666667 -1.22222222 0 0 Z " fill="#C64345" transform="translate(88,36)"/>
<path d="M0 0 C2.79828356 0.38597015 3.8205884 0.80136573 5.75 2.9375 C7 5 7 5 7 7 C3.17053157 5.54744301 1.87949705 3.57104439 0 0 Z " fill="#F62128" transform="translate(53,145)"/>
<path d="M0 0 C1.32 0.66 2.64 1.32 4 2 C3.67 3.65 3.34 5.3 3 7 C1.02 5.35 -0.96 3.7 -3 2 C-2.01 1.34 -1.02 0.68 0 0 Z " fill="#F3170F" transform="translate(40,106)"/>
<path d="M0 0 C0 0.99 0 1.98 0 3 C0.66 3.33 1.32 3.66 2 4 C1.67 4.99 1.34 5.98 1 7 C1 6.34 1 5.68 1 5 C0.34 5 -0.32 5 -1 5 C-1 5.99 -1 6.98 -1 8 C-1.66 8 -2.32 8 -3 8 C-2.25 2.25 -2.25 2.25 0 0 Z " fill="#B7484D" transform="translate(94,92)"/>
<path d="M0 0 C1.32 0 2.64 0 4 0 C4.33 0.99 4.66 1.98 5 3 C4.360625 3.12375 3.72125 3.2475 3.0625 3.375 C2.381875 3.58125 1.70125 3.7875 1 4 C0.67 4.66 0.34 5.32 0 6 C0 4.02 0 2.04 0 0 Z " fill="#F91F1F" transform="translate(115,174)"/>
<path d="M0 0 C0.66 0 1.32 0 2 0 C0.90931332 3.77545388 0.0916909 6.47043472 -3 9 C-2.44271087 5.65626525 -1.64826111 2.96687001 0 0 Z " fill="#C0363B" transform="translate(178,137)"/>
<path d="M0 0 C0.66 0 1.32 0 2 0 C2.66 1.65 3.32 3.3 4 5 C3.01 5 2.02 5 1 5 C1 5.66 1 6.32 1 7 C0.34 7 -0.32 7 -1 7 C-0.67 4.69 -0.34 2.38 0 0 Z " fill="#EC302F" transform="translate(175,126)"/>
<path d="M0 0 C0.66 0.33 1.32 0.66 2 1 C1.67 2.65 1.34 4.3 1 6 C0.67 5.34 0.34 4.68 0 4 C-1.32 4.33 -2.64 4.66 -4 5 C-3 2 -3 2 0 0 Z " fill="#C64650" transform="translate(99,87)"/>
<path d="M0 0 C4.875 4.75 4.875 4.75 6 7 C5.01 7 4.02 7 3 7 C3 6.34 3 5.68 3 5 C2.01 4.67 1.02 4.34 0 4 C0 2.68 0 1.36 0 0 Z " fill="#CA464A" transform="translate(166,54)"/>
<path d="M0 0 C0.66 0.33 1.32 0.66 2 1 C1.67 3.31 1.34 5.62 1 8 C0.34 8 -0.32 8 -1 8 C-1.625 5.6875 -1.625 5.6875 -2 3 C-1.34 2.01 -0.68 1.02 0 0 Z " fill="#F5170B" transform="translate(109,172)"/>
<path d="M0 0 C1.32 1.32 2.64 2.64 4 4 C3.67 4.66 3.34 5.32 3 6 C1.35 5.67 -0.3 5.34 -2 5 C-1.34 3.35 -0.68 1.7 0 0 Z " fill="#F02533" transform="translate(52,145)"/>
<path d="M0 0 C0.66 0 1.32 0 2 0 C1.34 3.63 0.68 7.26 0 11 C-0.33 11 -0.66 11 -1 11 C-1.02688151 9.35425434 -1.04634123 7.70838587 -1.0625 6.0625 C-1.07410156 5.14597656 -1.08570313 4.22945313 -1.09765625 3.28515625 C-1 1 -1 1 0 0 Z " fill="#EB3537" transform="translate(179,111)"/>
<path d="M0 0 C0.33 0 0.66 0 1 0 C1.08762121 3.15436364 1.16513114 6.03421164 0 9 C-0.99 9.33 -1.98 9.66 -3 10 C-2.39009109 6.44219804 -1.4216319 3.3171411 0 0 Z " fill="#C14543" transform="translate(44,72)"/>
</svg>
